<svg width="58" height="59" viewBox="0 0 58 59" fill="none" xmlns="http://www.w3.org/2000/svg">
<path d="M25.6111 32.2212C22.0241 31.1542 18.3369 30.459 14.6076 30.1466C8.63042 29.6644 2.40273 30.2975 0.204717 30.5669C0.642215 33.4888 1.43836 36.3456 2.57512 39.0725L6.58864 38.3101C8.64976 38.0216 10.7252 37.8471 12.8056 37.7874C14.3208 37.7216 15.8388 37.7549 17.3497 37.8871L16.6009 35.0663C28.5876 35.0824 38.3197 39.5359 44.8841 43.7901L50.1906 47.6644L50.2068 47.6778C51.1621 46.4175 52.047 45.1052 52.8573 43.747C40.7898 33.0348 24.8434 28.1206 24.8434 28.1206L25.6111 32.2212ZM18.403 14.8355L18.3868 18.505C13.1534 16.5347 7.72726 15.1205 2.19801 14.2859C1.9071 14.2535 1.63235 14.2266 1.37376 14.2023C1.30103 14.5041 1.23099 14.8112 1.16904 15.1238C0.609644 17.1737 0.218663 19.266 0 21.3797C0.581826 21.4013 1.15198 21.4273 1.71046 21.4578L7.13276 21.8997C9.59744 22.1691 11.782 22.5409 13.6352 22.9262C18.1632 23.8476 20.5067 24.8121 20.5067 24.8121L20.3828 21.8162C30.5459 24.8418 38.8558 30.1305 45.1643 35.3842L50.4438 40.1772C51.4593 41.1821 52.3913 42.1574 53.2425 43.0842C54.0362 41.7128 54.7372 40.2898 55.3408 38.8247C41.0268 22.5382 18.403 14.8355 18.403 14.8355ZM21.366 40.4304L22.139 43.4264C17.4125 43.4462 12.7176 44.1978 8.22099 45.6545C7.69573 45.8296 7.14353 46.0236 6.58864 46.2284C16.8514 60.381 36.5392 65.1686 49.9051 48.0793C49.0243 47.5135 48.0034 46.9073 46.7858 46.2472C34.7264 39.8862 21.3794 40.4277 21.3794 40.4277L21.366 40.4304ZM5.05327 6.78518C6.6506 7.22434 7.62031 7.50454 7.62031 7.50454C8.31796 7.7551 8.96713 8.00027 9.57858 8.23467C12.3261 9.26116 13.8372 9.99398 13.8372 9.99398V6.53193C27.6287 11.7452 38.08 19.615 45.466 26.7708L50.7212 32.2858C52.6876 34.522 54.3011 36.5696 55.5698 38.2912C67.2764 8.01374 19.9087 -10.8215 5.05327 6.78518Z" fill="#00404C"/>
</svg>
