<?xml version="1.0" encoding="utf-8"?>
<!-- Generator: Adobe Illustrator 25.4.1, SVG Export Plug-In . SVG Version: 6.00 Build 0)  -->
<svg version="1.1" xmlns="http://www.w3.org/2000/svg" xmlns:xlink="http://www.w3.org/1999/xlink" x="0px" y="0px"
	 viewBox="0 0 3200 2000" style="enable-background:new 0 0 3200 2000;" xml:space="preserve">
<style type="text/css">
	.st0{fill:#8599B0;}
	.st1{fill:#DDE4ED;}
	.st2{fill:#EEF3F9;}
	.st3{fill:#C1CFDF;}
	.st4{fill:#394C60;}
	.st5{fill:#0F1725;}
	.st6{fill:#FEA021;}
	.st7{fill:#FFBD22;}
	.st8{fill:#EBD6AC;}
	.st9{fill:#2A394D;}
	.st10{fill:#1D3B4C;}
	.st11{fill:#D1CFCB;}
	.st12{fill:#F9F9FA;}
	.st13{fill:#C1DAE3;}
	.st14{fill:#F7F7F7;}
	.st15{fill:#858585;}
	.st16{fill:#7A7A7A;}
	.st17{opacity:0.37;fill:#EEF3F9;}
	.st18{fill:#FEA123;}
	.st19{fill:#F8A492;}
	.st20{fill:#F7A491;}
	.st21{fill:#F47458;}
	.st22{fill:#FE875E;}
	.st23{fill:#1A2534;}
	.st24{fill:#FFFFFF;}
</style>
<g id="_x2014_ÎÓÈ_x5F_2">
</g>
<g id="Layer_1">
	<path class="st0" d="M1350.1,158.2c-6.4-22.4-31.5-39.2-61.6-39.2c-5.5,0-10.9,0.6-15.9,1.6c-14.8-25.3-47-42.9-84.2-42.9
		c-9.6,0-18.9,1.2-27.7,3.3c-20.1-26.6-56.5-44.3-98.2-44.3c-49.5,0-91.7,25.1-107.7,60.3c-11.3-5-24.3-7.9-38.2-7.9
		c-43.4,0-78.6,28.1-78.6,62.9c0,2.1,0.1,4.1,0.4,6.1H1350.1z"/>
	<path class="st1" d="M2362.5,694.5c-9.1-31.6-44.3-55.1-86.4-55.1c-7.7,0-15.2,0.8-22.4,2.3c-20.8-35.6-65.9-60.3-118.3-60.3
		c-13.5,0-26.6,1.7-38.9,4.7c-28.2-37.4-79.4-62.4-137.9-62.4c-69.6,0-128.8,35.4-151.3,84.9c-15.9-7.1-34.2-11.2-53.7-11.2
		c-61,0-110.4,39.6-110.4,88.5c0,2.9,0.2,5.8,0.5,8.6H2362.5z"/>
	<path class="st2" d="M746.2,1265c5.1-17.8,25-31.1,48.8-31.1c4.4,0,8.6,0.5,12.6,1.3c11.7-20.1,37.2-34.1,66.8-34.1
		c7.6,0,15,0.9,21.9,2.7c15.9-21.1,44.8-35.2,77.8-35.2c39.3,0,72.8,20,85.4,48c9-4,19.3-6.3,30.3-6.3c34.4,0,62.4,22.4,62.4,50
		c0,1.6-0.1,3.3-0.3,4.8H746.2z"/>
	<g>
		<path class="st3" d="M1627.7,1082.5h-198.8c-28.7,238.9-32.7,630.6-260.4,851.7h719.7C1650.5,1677,1650.9,1317.6,1627.7,1082.5z"
			/>
		<g>
			<g>
				<path class="st4" d="M1636.5,1095.2H1420c-3,0-5.5-2.5-5.5-5.5v-60.1H1642v60.1C1642,1092.8,1639.6,1095.2,1636.5,1095.2z"/>
				<g>
					<path class="st5" d="M1350.9,711.9c0,0-85.8,114.3-146.9,184.7c-82.4,94.9-60.5,107,13.3,370.2
						c187.7-126.4,107.6-308.8,175-345.6C1515.3,854.1,1350.9,711.9,1350.9,711.9z"/>
					<path class="st5" d="M1705.6,711.9c0,0,85.8,114.3,146.9,184.7c82.4,94.9,60.5,107-13.3,370.2
						c-187.7-126.4-107.6-308.8-175-345.6C1541.2,854.1,1705.6,711.9,1705.6,711.9z"/>
				</g>
				<g>
					<path class="st6" d="M1761.7,621.7c0-220.4-127.4-417.2-193.3-504.3c-19.6-26-58.5-26.5-78.9-1.2
						c-67.2,83.4-194.7,271.1-194.7,494.8c0,90.4,61.9,347,94.2,412.4c7.7,15.7,23.6,25.6,41.1,25.6h201.2c17.5,0,33.4-10,41.1-25.6
						C1704.7,958,1761.7,712.1,1761.7,621.7z"/>
				</g>
				<path class="st7" d="M1672.5,1023.4c32.3-65.4,89.3-311.3,89.3-401.7c0-134.2-47.3-259.7-99.1-357
					c-40.4-20.8-84.9-32.3-131.6-32.3c-51.7,0-100.6,14.1-144.3,39.3c-49.1,92.2-91.9,209.7-91.9,339.4c0,90.4,61.9,347,94.2,412.4
					c7.7,15.7,23.6,25.6,41.1,25.6h201.2C1648.8,1049,1664.7,1039,1672.5,1023.4z"/>
				<g>
					
						<ellipse transform="matrix(0.7071 -0.7071 0.7071 0.7071 84.8617 1238.3049)" class="st8" cx="1537.2" cy="516.7" rx="143.3" ry="143.3"/>
					
						<ellipse transform="matrix(0.7071 -0.7071 0.7071 0.7071 83.7323 1231.9369)" class="st9" cx="1528.9" cy="514.9" rx="143.3" ry="143.3"/>
					<path class="st10" d="M1392,517c0-79.2,64.2-143.3,143.3-143.3c14.6,0,28.6,2.2,41.9,6.2c-15.1-5.4-31.3-8.4-48.3-8.4
						c-79.2,0-143.3,64.2-143.3,143.3c0,64.6,42.7,119.2,101.5,137.1C1431.7,632.2,1392,579.2,1392,517z"/>
					<path class="st11" d="M1541.7,639.8c0,6-4.8,10.8-10.8,10.8c-6,0-10.8-4.8-10.8-10.8s4.8-10.8,10.8-10.8
						C1536.8,629,1541.7,633.8,1541.7,639.8z"/>
					<circle class="st11" cx="1530.2" cy="393.7" r="10.8"/>
					<circle class="st11" cx="1622.7" cy="434.8" r="10.8"/>
					<path class="st11" d="M1453.6,604.8c0,6-4.8,10.8-10.8,10.8c-6,0-10.8-4.8-10.8-10.8c0-6,4.8-10.8,10.8-10.8
						C1448.8,594,1453.6,598.8,1453.6,604.8z"/>
					<circle class="st11" cx="1622.7" cy="600" r="10.8"/>
					<path class="st11" d="M1449.3,433.1c0,6-4.8,10.8-10.8,10.8c-6,0-10.8-4.8-10.8-10.8c0-6,4.8-10.8,10.8-10.8
						C1444.5,422.2,1449.3,427.1,1449.3,433.1z"/>
					<circle class="st11" cx="1654.7" cy="517" r="10.8"/>
					<circle class="st11" cx="1404.9" cy="517" r="10.8"/>
					
						<ellipse transform="matrix(0.7071 -0.7071 0.7071 0.7071 83.7323 1231.9369)" class="st12" cx="1528.9" cy="514.9" rx="105.2" ry="105.2"/>
					<path class="st13" d="M1435.8,527.9c0-58.1,47.1-105.2,105.2-105.2c27.2,0,52,10.3,70.7,27.3c-19.3-24.5-49.2-40.3-82.7-40.3
						c-58.1,0-105.2,47.1-105.2,105.2c0,30.9,13.3,58.6,34.5,77.9C1444.2,574.9,1435.8,552.3,1435.8,527.9z"/>
					<g>
						<circle class="st14" cx="1528.9" cy="638.1" r="10.8"/>
						<path class="st15" d="M1528.9,644.1c-3.3,0-6-2.7-6-6c0-3.3,2.7-6,6-6c3.3,0,6,2.7,6,6C1535,641.4,1532.3,644.1,1528.9,644.1z
							"/>
						<path class="st14" d="M1539.1,392c0,6-4.8,10.8-10.8,10.8c-6,0-10.8-4.8-10.8-10.8c0-6,4.8-10.8,10.8-10.8
							C1534.2,381.2,1539.1,386,1539.1,392z"/>
						<path class="st15" d="M1528.3,398c-3.3,0-6-2.7-6-6c0-3.3,2.7-6,6-6s6,2.7,6,6C1534.3,395.3,1531.6,398,1528.3,398z"/>
						<path class="st14" d="M1631.6,433.1c0,6-4.8,10.8-10.8,10.8c-6,0-10.8-4.8-10.8-10.8c0-6,4.8-10.8,10.8-10.8
							C1626.8,422.3,1631.6,427.1,1631.6,433.1z"/>
						<path class="st15" d="M1620.8,439.1c-3.3,0-6-2.7-6-6c0-3.3,2.7-6,6-6s6,2.7,6,6C1626.8,436.4,1624.1,439.1,1620.8,439.1z"/>
						<path class="st14" d="M1451.7,603.1c0,6-4.8,10.8-10.8,10.8c-6,0-10.8-4.8-10.8-10.8c0-6,4.8-10.8,10.8-10.8
							C1446.9,592.3,1451.7,597.1,1451.7,603.1z"/>
						<path class="st15" d="M1440.9,609.1c-3.3,0-6-2.7-6-6c0-3.3,2.7-6,6-6s6,2.7,6,6C1446.9,606.4,1444.2,609.1,1440.9,609.1z"/>
						<circle class="st14" cx="1620.8" cy="598.3" r="10.8"/>
						<circle class="st15" cx="1620.8" cy="598.3" r="6"/>
						<path class="st14" d="M1447.4,431.4c0,6-4.8,10.8-10.8,10.8c-6,0-10.8-4.8-10.8-10.8c0-6,4.8-10.8,10.8-10.8
							C1442.5,420.6,1447.4,425.4,1447.4,431.4z"/>
						<path class="st15" d="M1436.6,437.4c-3.3,0-6-2.7-6-6c0-3.3,2.7-6,6-6c3.3,0,6,2.7,6,6
							C1442.6,434.7,1439.9,437.4,1436.6,437.4z"/>
						<circle class="st14" cx="1652.8" cy="515.3" r="10.8"/>
						<path class="st15" d="M1652.8,521.4c-3.3,0-6-2.7-6-6c0-3.3,2.7-6,6-6c3.3,0,6,2.7,6,6
							C1658.8,518.7,1656.1,521.4,1652.8,521.4z"/>
						<circle class="st14" cx="1403" cy="515.3" r="10.8"/>
						<path class="st15" d="M1403,521.4c-3.3,0-6-2.7-6-6c0-3.3,2.7-6,6-6s6,2.7,6,6C1409,518.7,1406.3,521.4,1403,521.4z"/>
					</g>
					<path class="st16" d="M1594.5,518.5c-11.9,45.9-58.7,73.4-104.5,61.5c-14.1-3.7-26.5-10.6-36.5-19.9
						c11.4,19.8,30.5,35.2,54.4,41.4c47.3,12.2,95.5-16.2,107.8-63.4c10-38.7-7.2-78-39.7-97.7C1594,461,1601.9,490,1594.5,518.5z"
						/>
				</g>
			</g>
			<path class="st9" d="M1558.1,1014.5c0,139.3-13.8,229.2-29.9,252.3c-16.6-24-29.9-113-29.9-252.3c0-139.3,29.9-252.3,29.9-252.3
				S1558.1,875.1,1558.1,1014.5z"/>
			<path class="st17" d="M1324,659c0-232.9,136.9-428.4,209-515.3c0.1-0.1,0.1-0.2,0.2-0.2c6.7-8-1.8-19.6-11.8-15.7
				c-7.7,3-14.7,7.8-20.4,14.7c-67.2,80.9-194.7,263.1-194.7,480.2c0,86.4,55.6,300.2,88.3,367.9C1360.2,883.2,1324,732.7,1324,659z
				"/>
		</g>
		<path class="st3" d="M2426.4,1934.2l172.2,0.8c71.8-221.4-85.8-312.8-195.8-296.9c-101.8,14.7-142.7,82.9-142.7,175
			c0,6,0.3,11.8,0.8,17.6c-1.3-0.1-2.6-0.1-3.9-0.1c-12.7,0-25,2.5-36.4,7c-17.5-58.4-65-100.2-120.9-100.2
			c-64.7,0-118.2,56.1-126.8,128.9c-7.6-2.5-15.7-3.9-24-3.9c-39.2,0-72.4,30.2-83.5,71.8H2426.4z"/>
		<path class="st3" d="M1123.4,1833.4c-36.8,0-68.8,23.8-85.3,59c-12.7-16.2-30.9-26.3-51.1-26.3c-17.8,0-34,7.8-46.2,20.7
			c-9.9-71.1-62.7-125.4-126.4-125.4c-10.5,0-20.6,1.5-30.3,4.2c-191-66.5-169.4,168.5-169.4,168.5h605.4
			C1214.6,1877.5,1173.4,1833.4,1123.4,1833.4z"/>
	</g>
	<path class="st5" d="M2648.7,1946.8H535.5c-3.3,0-5.9-2.6-5.9-5.9v-6.9c0-3.3,2.6-5.9,5.9-5.9h2113.2c3.3,0,5.9,2.6,5.9,5.9v6.9
		C2654.6,1944.1,2651.9,1946.8,2648.7,1946.8z"/>
	<g>
		<g>
			<path class="st18" d="M2362.7,113.9h-321.3c-17,0-30.7,13.8-30.7,30.8v203.4c0,17,13.8,30.8,30.7,30.8h216.8
				c15.7,21.9,44,61.2,46.5,61.2c2.3,0-2.2-37.1-5.4-61.2h63.3c17,0,30.7-13.8,30.7-30.8V144.7
				C2393.5,127.7,2379.7,113.9,2362.7,113.9z"/>
			<path class="st14" d="M2046.5,218.4l80,0l0,0l76.1,0c0.5,0,0.9,0.4,0.9,0.9v12c0,0.5-0.4,0.9-0.9,0.9h-76.1h-3.9h-76.1
				c-0.5,0-0.9-0.4-0.9-0.9v-12C2045.6,218.9,2046,218.4,2046.5,218.4z"/>
			<path class="st14" d="M2357.5,232.4h-131c-0.3,0-0.6-0.2-0.6-0.6V219c0-0.3,0.2-0.6,0.6-0.6h131c0.3,0,0.6,0.2,0.6,0.6v12.8
				C2358.1,232.1,2357.8,232.4,2357.5,232.4z"/>
			<path class="st2" d="M2358.1,186.9h-174.4c-0.3,0-0.6-0.2-0.6-0.6v-12.8c0-0.3,0.2-0.6,0.6-0.6h174.4c0.3,0,0.6,0.2,0.6,0.6v12.8
				C2358.6,186.6,2358.4,186.9,2358.1,186.9z"/>
			<path class="st14" d="M2152.9,186.9h-106.8c-0.3,0-0.6-0.2-0.6-0.6v-12.8c0-0.3,0.2-0.6,0.6-0.6h106.8c0.3,0,0.6,0.2,0.6,0.6
				v12.8C2153.5,186.6,2153.2,186.9,2152.9,186.9z"/>
			<polygon class="st2" points="2358.6,321.5 2045.6,321.5 2045.6,321.5 2045.6,307.6 2358.6,307.6 			"/>
			<rect x="2045.6" y="263.5" class="st14" width="148.9" height="13.9"/>
			<rect x="2209.2" y="263.5" class="st14" width="148.9" height="13.9"/>
		</g>
		<path class="st19" d="M2485.5,951.3c-1.5,5.1-2.3,6.7-4.2,10.1c-12,21.9-40,53.2-40,53.2l-21.6-48.7c0,0,3.5-15.3,9.6-37.2
			C2450.3,934.2,2470.1,937.4,2485.5,951.3z"/>
		<path class="st6" d="M2361.6,909c0,0,120.6,51.9,124.5,50.9c2.5-0.6,49.5-79.2,50-153.1c0.2-34.1-35.2-75.2-74.8-67.1
			c-19.9,4.1-19.6,9.6-49.1,52.4C2382.7,835,2361.6,909,2361.6,909z"/>
		<path class="st20" d="M2258.6,1840c0,0,2.9,47.4,2.9,47.5c1.1,6,5.2,20.9,5.2,26.3c0,20.5-97.5-17.4-75.7-26.5
			c2-0.8,12.3-7.1,13-14c1-10.8,3.5-32.6,3.5-32.6L2258.6,1840z"/>
		<path class="st6" d="M2187.9,1885.6c0,0,23.3,7,35.2,8.8c11.9,1.8,27.7-13,36.1-9c9.3,4.4,8.9,43.9,8.9,43.9s-125,11.3-160.1-0.4
			C2094.1,1924.3,2140.2,1901.9,2187.9,1885.6z"/>
		<path class="st20" d="M2458.1,1840c0,0,2.9,47.4,2.9,47.5c1.1,6,5.2,20.9,5.2,26.3c0,20.5-97.5-17.4-75.7-26.5
			c2-0.8,15.4-11.7,16.1-18.7c1-10.8,0.5-27.9,0.5-27.9L2458.1,1840z"/>
		<path class="st6" d="M2390.9,1885.6c0,0,23.3,7,35.2,8.8c11.9,1.8,27.7-13,36.1-9c9.3,4.4,9.7,43.9,9.7,43.9
			s-125.5,13.1-160.9-0.4C2297.4,1923.6,2343.3,1901.9,2390.9,1885.6z"/>
		<g>
			<path class="st20" d="M2428.3,977.5l-85.9-120.3c-0.4-1.1-1.1-3.2-2.3-6.5c-4.3-11.9-13.3-36.8-21.2-61.5l-0.1-0.3
				c-2.5-8.6-7.7-23.7-12.7-38.3c-5.6-16.2-12.6-36.3-12.8-39.7c0.2-0.6,0.6-1.6,1.2-3c3.1-8.2,7.4-27.6,8.9-36.1
				c1-5.4,1.9-18.5-4.5-18.5c-10.1,0-5.3,13.1-9.9,21.3c-1.7-5.5-5.2-16.3-7-27.3l-1.7-25.6c-0.3-1.9,1.7-16-5.3-16l-0.3,0
				c-6.3,0.5-6.2,15.5-8.8,40.8c-0.8-2.9-1.7-6.4-2.3-9.7c0.1-1.7-1.2-9.4-2.1-13.4c1.3-7.1,0.5-18.2-7-17.2
				c-3.8,0.5-3.5,16.1-3.5,16.1c0,2.1,0.3,18.6,0.1,21.8c-0.8-5.5-3.8-29.1-9.7-29.1c-4.9,0-5.3,6.3-5.2,11.4
				c0.1,3,3.1,28.5,3.3,31.4c-2.3-3.9-5-26.4-7.3-26.4c-9.6,0-6.1,32-2.6,40.3c0.3,0.9,0.7,2.5,1.1,4.5c1.2,5.7,3.2,15.2,8.2,23.8
				c6,10.3,14.3,26.6,15.5,29.1c0.9,5.1,3.8,23.4,7.4,46.5c1.5,9.9,3.2,20.7,5,31.9l0.1,0c0.3,2.4,2.1,10.1,8.9,39.1
				c9.3,39.6,10.3,41.3,10.7,42c4,7.1,96.6,132.9,100.6,138.2l2.3,3.2L2428.3,977.5z"/>
			<path class="st21" d="M2268.6,696.9c0,0,7-17.8,19.4-17.9c0,0-6.9-2.5-12.9,2.2C2269.1,686,2268.6,696.9,2268.6,696.9z"/>
		</g>
		<g>
			<path class="st20" d="M2449.1,662.5l11.1,69.9c0,0-42.1,33.8-66.7,26.7c-20.6-6-6.5-32.9-6.5-32.9s11-37.3,7.6-56.9
				C2391.2,649.7,2449.1,662.5,2449.1,662.5z"/>
			<path class="st22" d="M2441.1,683.6c-10.6,5-31.4,11.8-47.7,13.4c1.6-9.8,2.4-20.1,1.1-27.8c-1.6-9,9.9-11.2,22.8-10.9
				c16.8,1.4,31.7,4.1,31.7,4.1l2.1,13.4C2448,679.3,2444.6,682,2441.1,683.6z"/>
			<path class="st20" d="M2502.2,581.8c1.7,0-16.7,78.1-45.1,91.5c-28.5,13.4-70.9,6.4-78.9-14.6c-8.8-23.3,23.3-103,63.4-113.1
				C2481.6,535.6,2502.2,581.8,2502.2,581.8z"/>
			<path class="st23" d="M2469.3,510.1c22.7,13.1,33.2,32.6,36.7,40.5c10.7,5.1,23.6,16,29.8,45.5c7.6,36.3-19.5,64.2-48.2,72.7
				c-28.7,8.4-33.2,27.4-33.2,27.4l-3.3-20.5c0,0,6.4-17.8,16-26.7c9.6-8.9-4.6-21.9-5.8-32.5c-1-8.2,5-24,3.7-37.4
				c0,0-16-24.2-31.7-30.2C2406.6,538.8,2440.1,493.2,2469.3,510.1z"/>
			<path class="st20" d="M2457.2,630.1c-3.7,9-2.2,18,3.4,20c5.6,2,13.1-3.6,16.9-12.7c3.7-9,2.2-18-3.4-20
				C2468.5,615.4,2460.9,621.1,2457.2,630.1z"/>
		</g>
		<path class="st19" d="M2351.2,979.4l-165.7-27c0,0,18.8-47.5,25.6-47.5c6.7,0,125.3,51.7,125.3,51.7l9.4,18.9L2351.2,979.4z"/>
		<path class="st9" d="M2436,1093c0,0,16.5,79.9,9.8,140.5c-6.7,60.6-7.3,275.8-7.3,275.8l25.7,344.3l-61,1.3
			c0,0-72.3-344.1-71-335.3c1.3,8.8-24.2-242.3-24.2-242.3l86.2-191.8L2436,1093z"/>
		<path class="st9" d="M2419.9,1089.2c0,0,10.8,71.9-2.7,103.5c-13.5,31.6-115.5,341.1-116.9,366.4c-1.3,25.2-35.3,304.2-35.3,304.2
			l-70.9-2l-15.3-310.2l32.1-389.8l31.2-98.6L2419.9,1089.2z"/>
		<path class="st20" d="M2460.1,732.4c0,0-17.5,11.5-33.8,10.1c-16.3-1.3-39.4-16.4-39.4-16.4l3.2-10.9c0,0,42.2-6.1,43.3-5.5
			C2434.5,710.5,2460.1,732.4,2460.1,732.4z"/>
		<path class="st19" d="M2273.8,902.6c0,0-62.7,59.1-90.9,49c-28.3-10.1-40-44.6,29-95.1C2273.6,811.4,2273.8,902.6,2273.8,902.6z"
			/>
		<path class="st7" d="M2231.3,975.7c9.3-50.6,76.8-208.2,82.2-237.3c2.6-14.1,39-14.4,73.7-12.6c36.6,1.9,73,6.6,73,6.6
			s32.4,5.3,46.7,18.7c14.3,13.4,18,50.3-2.5,120.5c-16.2,55.4-36.2,85.8-46.2,126.1c-2,13.5-3.7,26.9-6,42.5c-3.6,60.3,0,140,0,140
			s-176.4,36.6-242.4-18.9C2209.8,1161.2,2221.8,1027.5,2231.3,975.7z"/>
		<path class="st6" d="M2186.3,866.8c0,0,69.2,57.1,73.3,57.1c2.6,0,98.8-70.8,121-128.9c12.3-32.1-13.5-68.1-42.9-68
			c-20.4,0.1-29.4,5.3-69.9,39.4C2227.5,800.5,2186.3,866.8,2186.3,866.8z"/>
		<path class="st24" d="M2385.7,633l25.9,11.7c0,0-5,9.6-16.6,4.8C2380.9,643.6,2385.7,633,2385.7,633z"/>
	</g>
</g>
</svg>
