<svg xmlns="http://www.w3.org/2000/svg" viewBox="0 0 1872.55 959.12"><defs><style>.cls-1{fill:#2a394c;}.cls-2{fill:#e5683c;}.cls-3{fill:#1d3b4c;}.cls-4{fill:#f7f7f7;}.cls-5{fill:#1a3141;}.cls-6{fill:#ffbd22;}.cls-7{fill:#ffa022;}.cls-8{fill:#ad5a3b;}.cls-9{fill:#556a82;}.cls-10{fill:#3b4b5e;}.cls-11{fill:#dce5ee;}.cls-12{fill:#c2cedf;}.cls-13{fill:#8c4326;}.cls-14{fill:#28394c;}.cls-15{fill:#556981;}.cls-16{fill:#0f1725;}.cls-17{fill:#ef9789;}.cls-18{fill:#546a82;}.cls-19{fill:#f7a491;}.cls-20{fill:#f47458;}.cls-21{fill:#3c4b5e;}.cls-22{fill:#3a4d5e;}.cls-23{fill:#c1cfdf;}.cls-24{fill:#394d5f;}</style></defs><g id="Layer_1" data-name="Layer 1"><path class="cls-1" d="M2347.58,1433.63h4.59a268.94,268.94,0,0,1,9.76-50.29c20-67.43,11.23-76.16,45-118.31s36.21-129.56,36.21-129.56,16.23-99.27,0-143-17.48-87.41-56.81-133.61c0,0-7.5,61.81-16.86,89.91s-18.26,54.94-11.32,122.37,11.26,73,12.85,90.53-.91,91.17,2.84,103.33-21.85,96.45-23.73,132.66C2349.5,1408.58,2348.49,1421,2347.58,1433.63Z" transform="translate(-730.77 -612.09)"/><path class="cls-2" d="M2361.94,1433.63c6.51-15,18-29.91,38-38.86,52.44-23.42,87.82-22.9,112.17-79.09s24.35-133,32.78-148.9c0,0-22.48-3.75-45,36.52s-37.72,70.24-50.7,93.65-31.71,16.86-47.63,34.65c-13.34,14.92-25.66,49.61-30.34,67.21a69.2,69.2,0,0,1-6.65,16.38c-2.65,4.68-5.78,10.38-7.65,14.44a22.49,22.49,0,0,0-1.24,4Z" transform="translate(-730.77 -612.09)"/><path class="cls-1" d="M2214,1167.31c-3.75,48.08,26.85,44.33,28.09,74.93s41.21,82.41,59.72,119.24c9.63,19.16,13.19,48.45,14.38,72.15H2331c-5.75-60-30.09-101.74-44.64-135.2-18.73-43.08-21.54-62.75-5.62-96.46s-7.49-120.81,15.18-159.64,11-99.78,5.83-123.19.53-39.33,5.22-64-5.22-60.53-5.22-60.53c-.84,30.59-24.13,72.42-41,99.27s-48.69,99.89-45,133,1.88,35.59,1.88,35.59C2205.84,1106.75,2217.71,1119.24,2214,1167.31Z" transform="translate(-730.77 -612.09)"/><path class="cls-2" d="M2303.2,1394.57c1.91,5.74,8,20.39,13.65,39.06H2326c-4.15-23.76-11.32-51.35-23.41-67.16-24.34-31.84-73-45.57-78.66-68.67s.62-92.4-35-131.11c0,0,5,43.09,0,54.63s-47.44,65.24-22.47,110.19,81.16,39.34,98.64,49.32S2300.08,1385.2,2303.2,1394.57Z" transform="translate(-730.77 -612.09)"/><path class="cls-2" d="M2280.72,1187.25c-.62,46.2,35.59,63.68,35,89.28s7.49,53.07,14.35,73.67c4.35,13,1.95,49.36,1.18,83.43h10c2.54-25,5.31-61.17,4.39-77.18-1.25-21.85,8.74-39.34,10-77.42s9.37-72.42-7.49-120.5S2334.42,1053,2263.87,1000c0,0-12.49,56.19-3.13,86.78S2281.35,1141.05,2280.72,1187.25Z" transform="translate(-730.77 -612.09)"/><path class="cls-3" d="M2280.72,1187.25c-.62,46.2,35.59,63.68,35,89.28s7.49,53.07,14.35,73.67c4.35,13,1.95,49.36,1.18,83.43h4.17c.56-7.11,1.11-11.59,1.11-11.59l2.08-86.15s-4.16-67.43-11.66-122.37S2263.87,1000,2263.87,1000s-12.49,56.19-3.13,86.78S2281.35,1141.05,2280.72,1187.25Z" transform="translate(-730.77 -612.09)"/><path class="cls-4" d="M2352.2,1394.21h-96.71a10.25,10.25,0,0,0-10,12.63l35.25,148.65a10.25,10.25,0,0,0,10,7.89h116.17a10.25,10.25,0,0,0,10-7.89l35.25-148.65a10.25,10.25,0,0,0-10-12.63Z" transform="translate(-730.77 -612.09)"/><path class="cls-5" d="M2594.54,1558.67c4.85,0,8.78,2.8,8.78,6.27h0c0,3.46-3.93,6.27-8.78,6.27h-1855c-4.85,0-8.78-2.81-8.78-6.27h0c0-3.47,3.93-6.27,8.78-6.27" transform="translate(-730.77 -612.09)"/><polygon class="cls-3" points="221.93 952.76 207.75 952.76 237.97 690.11 252.15 690.11 221.93 952.76"/><polygon class="cls-3" points="381.98 952.76 396.16 952.76 365.94 690.11 351.76 690.11 381.98 952.76"/><polygon class="cls-3" points="470.06 952.76 455.88 952.76 486.1 690.11 500.28 690.11 470.06 952.76"/><polygon class="cls-3" points="630.12 952.76 644.29 952.76 614.07 690.11 599.9 690.11 630.12 952.76"/><path class="cls-6" d="M1190.1,1330.74H996.72c-22.66,0-42.92-18.38-45.24-41l-32-312.15c-2.32-22.67,14.17-41,36.84-41h193.38c22.67,0,42.92,18.37,45.24,41l32,312.15C1229.26,1312.36,1212.77,1330.74,1190.1,1330.74Z" transform="translate(-730.77 -612.09)"/><path class="cls-7" d="M1243.8,1330.74H1050.42c-22.67,0-42.92-18.38-45.24-41l-32-312.15c-2.32-22.67,14.17-41,36.84-41h193.38c22.67,0,42.92,18.37,45.24,41l32,312.15C1283,1312.36,1266.47,1330.74,1243.8,1330.74Z" transform="translate(-730.77 -612.09)"/><path class="cls-6" d="M1269.72,1345.13H995.61c-21.24,0-40.22-17.22-42.39-38.46h0c-2.18-21.24,13.28-38.46,34.52-38.46h274.1c21.24,0,40.22,17.22,42.4,38.46h0C1306.41,1327.91,1291,1345.13,1269.72,1345.13Z" transform="translate(-730.77 -612.09)"/><path class="cls-6" d="M1338.14,1345.13H1064c-21.24,0-40.22-17.22-42.39-38.46h0c-2.18-21.24,13.28-38.46,34.52-38.46h274.1c21.24,0,40.22,17.22,42.4,38.46h0C1374.84,1327.91,1359.38,1345.13,1338.14,1345.13Z" transform="translate(-730.77 -612.09)"/><path class="cls-8" d="M1236.05,1045.75l18,50s-44.69,11.27-45.82,11.64-10.89-49.2-10.89-49.2Z" transform="translate(-730.77 -612.09)"/><path class="cls-8" d="M1291.11,1459.53s-33,39.52-33.18,43,1.31,41,5.23,44.4,15.44,5.88,11.74,9.75c-2.8,2.92-24.33,2.3-38.59,1.51-4.17-.23-9.39-33.45-11-38.34-2.39-7.09-8.22-23.06-6-28,1.06-2.41,6.14-7.36,13.29-12,7.52-4.86,36.3-44.9,36.3-44.9Z" transform="translate(-730.77 -612.09)"/><path class="cls-9" d="M1233,1479.59s22.14,62.31,30.8,65.32c2.3.8,13.34,2.83,15.42,7.71.63,1.47,0,6.38,0,6.38h-46.13s-5.84-27.46-8.14-39.52c0,0-12.21-29.47-10.86-32.15S1233,1479.59,1233,1479.59Z" transform="translate(-730.77 -612.09)"/><path class="cls-8" d="M1488.27,1477.88s26.92,37.9,24.55,49.88c-1.27,6.42-6.91,14.82-3.67,20.86s6.94,7.56,6.94,7.56l84,1.35c4.57.07,1.55-2.87-2.14-5.57-6-4.43-10.9-7.36-30.19-16.67-1.25-.61-5.83-3.51-7.48-4.52a57.71,57.71,0,0,1-12-10.59c-6-6.69-32.54-61.28-32.54-61.28Z" transform="translate(-730.77 -612.09)"/><path class="cls-10" d="M1390.92,1244.11s-33.33,38-41.83,44.07S1259,1444.42,1259,1444.42l29.06,21.22s72.91-90.91,107.15-139.53c29-41.12,18.29-38.51,35.31-63.54a33.42,33.42,0,0,0-5.11-43.58q-2.31-2.09-5-4.36c-25.2-21-198-44.64-198-44.64L1112,1180.81s90.27,63.3,93.64,65,124.66,19.37,127.19,19.37S1390.92,1244.11,1390.92,1244.11Z" transform="translate(-730.77 -612.09)"/><path class="cls-10" d="M1100.74,1181.78s-19,56.86,9.48,83.39,197.31,23.59,252.9,23.59c0,0,22.74,62.33,25.27,72.44s112.87,140.66,112.87,140.66l30.32-19.37s-118.76-230.8-128-240.9-141.51-50.54-174.36-59.81S1100.74,1181.78,1100.74,1181.78Z" transform="translate(-730.77 -612.09)"/><path class="cls-3" d="M1227.26,847.68c-.41-41.79-33.19-76.49-74.72-62.2-9.34,3.22-22.42,10.58-29.54,17.43-19.23,18.53-27.08,43.69-46.77,61.53A167.69,167.69,0,0,0,1096.68,882l12.45-12.43L1103,886.39c24.19,16.15,59.41,31.67,109.62,38.57C1223,897.46,1227.48,870,1227.26,847.68Z" transform="translate(-730.77 -612.09)"/><path class="cls-11" d="M1226.88,997c-20.7-62.81-43.85-60.13-43.85-60.13l17.9,132c12.79-3.49,29.44-11.28,42.21-14.88C1238.9,1034.15,1232,1012.45,1226.88,997Z" transform="translate(-730.77 -612.09)"/><path class="cls-12" d="M1130,925.57s-38.15-2.43-53.24,14,33.48,146.91,36.22,167.89-14,76.78-14,76.78,89.62,18.07,115.23,1.09c0,0,2.74-150.89,0-165.88s-25.61-75.94-31.1-81.94S1130,925.57,1130,925.57Z" transform="translate(-730.77 -612.09)"/><path class="cls-12" d="M1141.15,1151.37c-9.22-5.25-31.48-9.69-31.48-9.69-30.16,71.84-20.17,134,16.65,142.87s72.39,12.6,199.91,7.61c34.12-78.64,70.64-88.16,70.64-88.16C1337.05,1173.16,1141.15,1151.37,1141.15,1151.37Z" transform="translate(-730.77 -612.09)"/><path class="cls-8" d="M1142.74,874.48s-.2,1.13-.55,3c-1.71,9.2-8.26,39.69-12.68,48.07-5.35,10.13,18.31,42.44,41.07,38.5,6.78-1.17-5.73-29.69-5.12-32.71,1.15-5.78,2.71-13.67,4.3-21.75.9-4.57,1.82-9.19,2.67-13.54,2.44-12.36,4.42-22.46,4.42-22.46Z" transform="translate(-730.77 -612.09)"/><path class="cls-13" d="M1142.19,877.52c.35-1.91.55-3,.55-3l34.11-.85s-2,10.1-4.42,22.46c-.85,4.32-1.76,8.92-2.65,13.46-5.27-.78-10.77-3.34-16.29-8.19A43.07,43.07,0,0,1,1141.15,883C1141.57,880.81,1141.92,879,1142.19,877.52Z" transform="translate(-730.77 -612.09)"/><path class="cls-8" d="M1178.29,803.38s-15.65-4.12-27.48,7.38-28.32,50-6.65,75.26,49.68,4.19,57.06-21.39S1214.53,807.62,1178.29,803.38Z" transform="translate(-730.77 -612.09)"/><path class="cls-8" d="M1208.6,865.3c-3.78,5.34-9.2,7.82-12.11,5.54s-2.19-8.46,1.59-13.8,9.21-7.82,12.12-5.54S1212.39,860,1208.6,865.3Z" transform="translate(-730.77 -612.09)"/><path class="cls-3" d="M1180.69,799.36s-26.72,35-42.18,34.57-20.36,19.5-20.36,19.5,12.11-45.79,28.46-52.62S1180.69,799.36,1180.69,799.36Z" transform="translate(-730.77 -612.09)"/><path class="cls-14" d="M1371,1005.45H1248.36a8.37,8.37,0,0,0-7.41,5.62l-51.72,163c-1,3.11.73,5.62,3.83,5.62h122.67a8.37,8.37,0,0,0,7.41-5.62l51.72-163C1375.85,1008,1374.13,1005.45,1371,1005.45Z" transform="translate(-730.77 -612.09)"/><path class="cls-8" d="M1141.12,844.06c.27,6.93-3.1,12.76-7.54,13s-8.24-5.13-8.51-12.06,3.11-12.77,7.54-13S1140.86,837.12,1141.12,844.06Z" transform="translate(-730.77 -612.09)"/><path class="cls-8" d="M1237.53,1124.63c-.81-.75-.67-1.23-.67-1.23,1.27-1.37,1.44-6.81-.26-8.13s-10.88-2.85-11.69-3.45-2.17-1.86-3.5-2.1-10.6-5.07-12.48-5.4-8.35,2.16-12.19,2.61-9.93,3.94-11.67,4.77c-1.3.61-26.52-3.44-33-4.41-7.07-1-12.49-2.29-12.49-2.29s-41-10.7-84.19-18.65L1067,1051.4l-40.49-9.22c-5,20-15.73,50.72-17.1,60.27-2.71,18.79,61.82,23.89,119,27.48h0c6.29.39,12.23.73,17.65,1,7.35.68,19.55,2.8,25.19,3.75h0a81.4,81.4,0,0,1,8.87,2.55,61.06,61.06,0,0,0,7.85,2.65,23.14,23.14,0,0,1,3.59,2.23c.91.62,13.91,2.47,16,2.84s6.89-.37,6.89-.37l8.73.87c6.41.64,5-6.09,5-6.09,3,.28,4.65-.71,5.29-2.39s.23-3.72.37-4,1.1-.4,1.1-.4c1.92.26,3.49-1.86,3.82-3.25A6.34,6.34,0,0,0,1237.53,1124.63Z" transform="translate(-730.77 -612.09)"/><path class="cls-11" d="M1022.54,1042.17s19.42-76.76,34.7-96.2,52-24.36,65-6.83-48.15,115.12-48.15,115.12Z" transform="translate(-730.77 -612.09)"/><path class="cls-4" d="M1291.42,1057.77c-1.27,4.85.91,9.63,4.88,10.67s8.21-2.06,9.48-6.91-.91-9.64-4.88-10.68S1292.69,1052.91,1291.42,1057.77Z" transform="translate(-730.77 -612.09)"/><path class="cls-9" d="M1565.84,1532.92c-25.5,6.53-44.36,2.09-54.91-2.16-2.72,7.7-6.32,17.35-4.41,22.92,2.34,6.81,5.67,8.35,8.62,8.43,23.3.61,85.34,1.44,103.11,1.67a2.89,2.89,0,0,0,2.25-4.76C1616.1,1553.77,1567.74,1534.08,1565.84,1532.92Z" transform="translate(-730.77 -612.09)"/><path class="cls-4" d="M1175.15,879l-19.33-6.87s-2.16,7.5,6.25,10.77C1172.33,886.9,1175.15,879,1175.15,879Z" transform="translate(-730.77 -612.09)"/><path class="cls-8" d="M1337.66,1144.27c1.53-3,2.73-10.84,3.55-13.49.41-1.33.94-3.13,1.31-4.81a4.48,4.48,0,0,0-2.73-5.11c-2.8-1.11-6.63-2.69-8-2.62-2.07.11-4.92,4.48-4.67,6.26,0,0-.16.46-1.2.6a6.12,6.12,0,0,0-3.59,3c-.5,1.28-.42,3.8,1.23,4.65,0,0,.7.59.64.92s-1.5,1.71-1.92,3.38.32,3.35,2.85,4.79c0,0-4.81,4.5.58,7.52l2.47,1.38a5.24,5.24,0,0,0,7.19-2.11C1336.25,1147,1337.09,1145.4,1337.66,1144.27Z" transform="translate(-730.77 -612.09)"/><path class="cls-7" d="M1477.31,709.59c-87.9.12-159.14,44.1-159.12,98.24,0,27.07,17.82,51.55,46.63,69.25l-39,47.55,78.4-29.83a241.56,241.56,0,0,0,73.14,10.84c87.9-.11,159.14-44.09,159.12-98.23S1565.2,709.48,1477.31,709.59Z" transform="translate(-730.77 -612.09)"/><polygon class="cls-3" points="1557.72 952.76 1571.9 952.76 1541.68 690.11 1527.5 690.11 1557.72 952.76"/><polygon class="cls-3" points="1397.67 952.76 1383.49 952.76 1413.71 690.11 1427.89 690.11 1397.67 952.76"/><polygon class="cls-3" points="1309.59 952.76 1323.77 952.76 1293.55 690.11 1279.37 690.11 1309.59 952.76"/><polygon class="cls-3" points="1149.54 952.76 1135.36 952.76 1165.58 690.11 1179.76 690.11 1149.54 952.76"/><path class="cls-15" d="M2051.09,1330.74h193.38c22.67,0,42.92-18.38,45.24-41l32-312.15c2.32-22.67-14.17-41-36.84-41H2091.45c-22.67,0-42.92,18.37-45.24,41l-32,312.15C2011.93,1312.36,2028.42,1330.74,2051.09,1330.74Z" transform="translate(-730.77 -612.09)"/><path class="cls-16" d="M1997.39,1330.74h193.38c22.67,0,42.92-18.38,45.24-41l32-312.15c2.32-22.67-14.17-41-36.84-41H2037.75c-22.67,0-42.92,18.37-45.24,41l-32,312.15C1958.23,1312.36,1974.72,1330.74,1997.39,1330.74Z" transform="translate(-730.77 -612.09)"/><path class="cls-15" d="M1971.48,1345.13h274.1c21.24,0,40.22-17.22,42.39-38.46h0c2.18-21.24-13.28-38.46-34.52-38.46h-274.1c-21.24,0-40.22,17.22-42.4,38.46h0C1934.78,1327.91,1950.24,1345.13,1971.48,1345.13Z" transform="translate(-730.77 -612.09)"/><path class="cls-15" d="M1903.05,1345.13h274.1c21.24,0,40.22-17.22,42.39-38.46h0c2.18-21.24-13.28-38.46-34.52-38.46h-274.1c-21.24,0-40.22,17.22-42.39,38.46h0C1866.35,1327.91,1881.81,1345.13,1903.05,1345.13Z" transform="translate(-730.77 -612.09)"/><path class="cls-17" d="M1850.63,1029.46c-1.27-3.69,16.66-6.6,17.63-10.32s-22.62-4.1-23.45-7.38c-1.54-6,25.85-1.18,25.32-4s-28.52-9.22-25.48-14.06,28.34,9.67,29.12,6.39-24.74-11.37-24.25-18.57c.26-3.85,41.85,19.35,46.69,17.27s-5.13-20.2-1.27-22.87,14.76,36.82,17.41,38.14,58.83,33.66,78.85,38.83c2.45-6.7,20.06-42.21,22.22-48.54,11.22,8,24.25,9.83,35.82,17.16-8.48,21-37.53,72.78-43.4,75.4-17.85,8-86.6-49.43-100.33-59.26s-21.63-6.7-30.94-9.82S1851.9,1033.16,1850.63,1029.46Z" transform="translate(-730.77 -612.09)"/><path class="cls-18" d="M2025.12,862c-.83-20.06,2.12-39.86,11.1-58.53,7.72-16.06,26.82-25.18,44.23-25.2,55.31-.07,62.35,73,97.55,101.19,10.76,8.62,22.79,15.63,33,24.92,37.59,34.3,20.65,97.79-13.86,127.86-24,20.87-61.6,32.72-91.12,16.41-15.41-8.52-27.1-22.67-35.44-38.18-11.83-22-19.45-47.4-27.86-70.86C2033.73,914.62,2026.23,888.63,2025.12,862Z" transform="translate(-730.77 -612.09)"/><path class="cls-11" d="M2045.81,1046.55s41.3-42.35,51.93-60.76-7.23-6.42-25.48-11.26c-6.92-1.83-5.17-42.33-18.23-29.17-21.44,21.6-48.39,59.37-48.39,59.37Z" transform="translate(-730.77 -612.09)"/><path class="cls-12" d="M2104.54,926.78s37.07-7.32,54,6.82-3.62,139.79-3.6,160.62,11.61,79.68,11.61,79.68-112.35,19.67-130.2-11.6c0,0-5.08-119.14-4.32-134.12s17.41-76.26,22-82.82S2104.54,926.78,2104.54,926.78Z" transform="translate(-730.77 -612.09)"/><path class="cls-19" d="M2104.77,869.44s.19,1.11.55,3c1.68,9.05,8.15,39.07,12.53,47.32,5.28,10-18.1,41.77-40.61,37.89-6.7-1.15,5.67-29.22,5.07-32.19-1.13-5.69-2.68-13.46-4.25-21.42-.89-4.49-1.8-9-2.64-13.32-2.41-12.16-4.37-22.11-4.37-22.11Z" transform="translate(-730.77 -612.09)"/><path class="cls-20" d="M2105.32,872.43c-.36-1.88-.55-3-.55-3l-33.72-.84s2,9.95,4.37,22.11c.84,4.25,1.74,8.78,2.62,13.25,5.21-.77,10.65-3.29,16.1-8.06a42.46,42.46,0,0,0,12.2-18.1C2105.92,875.67,2105.58,873.84,2105.32,872.43Z" transform="translate(-730.77 -612.09)"/><path class="cls-19" d="M2082.07,792.94s15.9-1.83,25.86,11,20.7,52.63-4,74.25-49.2-2.85-52.83-28.8S2046,792,2082.07,792.94Z" transform="translate(-730.77 -612.09)"/><path class="cls-19" d="M2043.73,849c3,5.73,7.91,8.91,11.07,7.09s3.34-7.93.38-13.67-7.91-8.9-11.07-7.08S2040.77,843.3,2043.73,849Z" transform="translate(-730.77 -612.09)"/><path class="cls-21" d="M2080.29,788.69s21.24,37.82,36.43,39.56,17.19,21.85,17.19,21.85-5.43-46.31-20.47-55.24S2080.29,788.69,2080.29,788.69Z" transform="translate(-730.77 -612.09)"/><path class="cls-22" d="M2112.74,837.76c-1.24,6.71,1.25,12.87,5.55,13.75s8.79-3.84,10-10.56-1.25-12.88-5.55-13.76S2114,831,2112.74,837.76Z" transform="translate(-730.77 -612.09)"/><path class="cls-19" d="M1969.82,1460.65s34.1,40.89,34.33,44.45-1.36,42.39-5.41,46-16,6.08-12.14,10.08c2.89,3,25.16,2.38,39.93,1.57,4.31-.24,9.71-34.62,11.42-39.67,2.47-7.34,8.5-23.87,6.25-29-1.1-2.49-6.35-7.61-13.75-12.39-7.79-5-37.57-46.47-37.57-46.47Z" transform="translate(-730.77 -612.09)"/><path class="cls-23" d="M2030,1481.41s-22.9,64.47-31.86,67.59c-2.38.82-13.8,2.92-16,8-.65,1.52,0,6.6,0,6.6h47.74s6-28.4,8.42-40.89c0,0,12.63-30.5,11.23-33.27S2030,1481.41,2030,1481.41Z" transform="translate(-730.77 -612.09)"/><path class="cls-19" d="M1765.54,1480.29s-27.85,39.2-25.4,51.61c1.31,6.64,7.15,15.33,3.8,21.58s-7.18,7.82-7.18,7.82l-86.88,1.4c-4.73.07-1.6-3,2.21-5.77,6.25-4.58,11.29-7.61,31.24-17.24,1.3-.63,6-3.64,7.74-4.68,4.34-2.64,8.69-6.79,12.43-11,6.24-6.93,33.67-63.41,33.67-63.41Z" transform="translate(-730.77 -612.09)"/><path class="cls-23" d="M1691.09,1535c23,5.88,40,1.88,49.46-1.94,2.45,6.93,5.7,15.62,4,20.63-2.11,6.14-5.11,7.53-7.76,7.6-21,.55-76.88,1.3-92.88,1.51a2.61,2.61,0,0,1-2-4.29C1645.82,1553.79,1689.37,1536.05,1691.09,1535Z" transform="translate(-730.77 -612.09)"/><path class="cls-24" d="M1866.28,1238.4s34.48,39.36,43.28,45.59,93.2,161.67,93.2,161.67l-30.07,22s-75.44-94.07-110.87-144.38c-30-42.54-18.92-39.85-36.54-65.74a34.6,34.6,0,0,1,5.29-45.1q2.39-2.16,5.2-4.51c26.08-21.73,204.82-46.19,204.82-46.19l114.33,11.2s-93.41,65.5-96.9,67.24-129,20-131.6,20S1866.28,1238.4,1866.28,1238.4Z" transform="translate(-730.77 -612.09)"/><path class="cls-1" d="M2166.53,1173.9s19.61,58.83-9.8,86.29-204.17,24.4-261.69,24.4c0,0-23.53,64.5-26.15,75S1752.1,1505.1,1752.1,1505.1l-31.37-20s122.89-238.81,132.47-249.27,146.43-52.29,180.42-61.88S2166.53,1173.9,2166.53,1173.9Z" transform="translate(-730.77 -612.09)"/><path class="cls-4" d="M2072.51,863.93l23.32-1.21s-.08,8.89-10.32,9.72C2073,873.44,2072.51,863.93,2072.51,863.93Z" transform="translate(-730.77 -612.09)"/><path class="cls-4" d="M2072.51,863.93l23.32-1.21s-.08,8.89-10.32,9.72C2073,873.44,2072.51,863.93,2072.51,863.93Z" transform="translate(-730.77 -612.09)"/><path class="cls-19" d="M1940.57,1047.37c-1.28-3.69,16.66-6.6,17.62-10.32s-22.61-4.1-23.44-7.38c-1.54-6,25.85-1.18,25.32-4s-28.53-9.23-25.48-14.06,28.34,9.67,29.11,6.39-24.73-11.37-24.25-18.57c.26-3.85,41.85,19.34,46.69,17.27s-5.12-20.2-1.27-22.88,14.77,36.83,17.42,38.15,58.83,33.65,78.84,38.83c2.46-6.7,20.06-42.21,22.23-48.55,11.21,8,24.24,9.83,35.82,17.17-8.48,21-37.53,72.78-43.4,75.4-17.85,8-86.6-49.43-100.33-59.26s-21.63-6.7-30.94-9.83S1941.84,1051.06,1940.57,1047.37Z" transform="translate(-730.77 -612.09)"/><path class="cls-11" d="M2144.55,1045.07s24.33-53.93,28-74.86-14.26-47.2-33.06-45.51-47,94.81-47,94.81Z" transform="translate(-730.77 -612.09)"/><path class="cls-12" d="M1763.29,612.09c105,.13,190.13,52.68,190.11,117.37,0,32.34-21.3,61.59-55.71,82.74L1944.28,869l-93.67-35.64c-26.17,8.32-55.88,13-87.39,13-105-.14-190.13-52.69-190.11-117.37S1658.27,612,1763.29,612.09Z" transform="translate(-730.77 -612.09)"/></g></svg>