<?xml version="1.0" encoding="utf-8"?>
<!-- Generator: Adobe Illustrator 25.4.1, SVG Export Plug-In . SVG Version: 6.00 Build 0)  -->
<svg version="1.1" xmlns="http://www.w3.org/2000/svg" xmlns:xlink="http://www.w3.org/1999/xlink" x="0px" y="0px"
	 viewBox="0 0 3200 2000" style="enable-background:new 0 0 3200 2000;" xml:space="preserve">
<style type="text/css">
	.st0{fill:#F9F9FA;}
	.st1{fill:#8599B0;}
	.st2{opacity:0.47;fill:#FFFFFF;}
	.st3{fill:#FFBD22;}
	.st4{fill:#FEA021;}
	.st5{opacity:0.63;fill:#FFFFFF;}
	.st6{opacity:0.3;}
	.st7{fill:#394C60;}
	.st8{fill:#91B3FA;}
	.st9{fill:#556A81;}
	.st10{fill:#BDD0FB;}
	.st11{fill:#DDE4ED;}
	.st12{opacity:0.85;fill:#F9F9FA;}
	.st13{fill:url(#SVGID_1_);}
	.st14{fill:url(#SVGID_00000183248460230230436000000002185629177890896811_);}
	.st15{fill:url(#SVGID_00000072971005574926924660000010326249125863557007_);}
	.st16{fill:url(#SVGID_00000070818852050783000520000011565860512747733429_);}
	.st17{fill:url(#SVGID_00000090984139895442724270000000136758865065075369_);}
	.st18{fill:url(#SVGID_00000161610765933614772700000011511797208343670201_);}
	.st19{fill:#0F1725;}
	.st20{fill:url(#SVGID_00000143617250631805425800000002385392968812454016_);}
	.st21{fill:url(#SVGID_00000145760199183813972750000009281928046253446077_);}
	.st22{fill:url(#SVGID_00000158743898097665480310000017111167203412558773_);}
	.st23{fill:url(#SVGID_00000019640878392289892980000007563220384078908848_);}
	.st24{fill:url(#SVGID_00000000941946209676023120000017036312403185399439_);}
	.st25{fill:url(#SVGID_00000076588436827670122420000012294907803626562976_);}
	.st26{fill:url(#SVGID_00000031926856310345405400000005336304549222450071_);}
	.st27{fill:url(#SVGID_00000100377519544322115360000004229400011181980548_);}
	.st28{fill:url(#SVGID_00000000919790377367808620000013291287483766349210_);}
</style>
<g id="_x2014_ÎÓÈ_x5F_2">
</g>
<g id="Layer_1">
	<path class="st0" d="M2428.9,1682.9c-39.1,41.1-76,67.6-105.2,88.6c-343.2,246.2-749.2,174.4-835.5,156.9
		c-127.4-25.9-373.8-75.9-551.8-285.3c-269.4-316.8-227.5-816-18.5-1145.5c38.2-60.3,240.2-394.8,650.6-448.5
		c248.4-32.5,537.9,33,747.6,208.7C2756.1,626.5,2724.8,1371.4,2428.9,1682.9z"/>
	<g>
		<path class="st1" d="M2047.6,1887.1c-3.3-0.4-6.3-2.2-8.3-4.9c-29-39-239.6-344.5,40.7-623.7c266.1-265.1,386.7-319.5,402.7-475.2
			c1.9-18.2,26.5-22.6,34.6-6.2c60.5,122.5,154.7,408.5-157.1,596.2c-343.9,207-315.7,434-299.1,498.5
			C2063.5,1880.3,2056.4,1888.3,2047.6,1887.1L2047.6,1887.1z"/>
		<path class="st1" d="M2090.3,1892.9c-7.8-1.1-14-7.1-15.2-14.9c-8.2-53.1-28.4-251.6,117.9-304.2c161-57.9,290.9,92,409.3-25.4
			c6.2-6.2,16.7-0.8,15.2,7.8c-10.5,61.3-57.4,203.3-266.2,231.8c-223.4,30.6-248.5,56.2-244,88
			C2108.6,1885.9,2100.1,1894.3,2090.3,1892.9L2090.3,1892.9z"/>
		<path class="st2" d="M2475.1,942.1c-2.7,11.6-6.4,22.4-10.7,33.2c-4.3,10.8-9.1,21.2-14.5,31.5c-10.6,20.6-23.3,40.1-37.1,58.6
			c-28,37-61.8,69.5-99.1,97.1c-18.6,13.7-38.5,26.3-58.1,37.7c-19.1,11.1-37.5,23.5-55.2,37c-35.3,26.9-67.3,58.1-95.5,92.3
			c-56.3,68.5-96.3,151.1-109.4,239.1c-6.7,43.9-6.8,88.8-0.7,133.1c6,44.3,18.6,87.7,35.3,129.5c0.9,2.2-0.2,4.8-2.4,5.7
			c-2.1,0.9-4.6-0.1-5.6-2.2c-19.5-41.3-34-85.3-42.1-130.7c-4.1-22.7-6.6-45.7-7.2-68.8c-0.6-23.1,0.4-46.3,3.3-69.3
			c5.6-46,18.6-91.1,37.3-133.6c18.8-42.5,43.5-82.1,72.5-118.3c28.9-36.2,62.5-68.7,99.2-97c18.4-14.1,37.6-27.2,57.7-38.9
			c19.6-11.3,38.3-22.7,56.4-35.8c36.1-25.8,69.4-55.5,98.1-89.4c14.5-16.8,27.7-34.8,39.7-53.6c11.8-18.8,22.8-38.6,30.7-59.2
			l0.1-0.3c0.8-2,3.1-3.1,5.1-2.3C2474.5,938.2,2475.5,940.2,2475.1,942.1z"/>
		<path class="st2" d="M2081,1856.9c0.7-1.9,0.5-3.7,0.4-5.5l-0.2-5.5l-0.1-10.9c0-7.3,0.2-14.6,0.5-21.9
			c0.6-14.6,1.9-29.1,3.8-43.6c4-28.9,10.5-57.8,22.2-84.9c11.5-27,29-52.8,54.4-69.6c12.6-8.3,26.9-14.2,41.7-17.1
			c14.8-3.1,29.9-3.6,44.8-2.3c58.2,6.7,115.2,17.9,172.3,26.9c28.5,4.2,57.3,8,85.3,4.2c6.9-1,13.8-2.5,20.4-4.7
			c6.6-2.3,13-5,19.1-8.5c12.2-6.9,22.8-16.4,32.4-27l0,0c1.3-1.4,3.6-1.6,5-0.2c1.4,1.3,1.6,3.5,0.3,5
			c-9.7,11.1-20.7,21.4-33.7,29.2c-6.4,3.9-13.3,7-20.4,9.6c-7.1,2.5-14.4,4.2-21.8,5.5c-29.8,4.4-59.3,0.7-88.1-3.3
			c-28.9-4.1-57.4-9.5-86-14.1c-28.5-4.6-57.4-9.1-85.8-12.5c-14-1.4-28.2-1-41.9,1.7c-13.7,2.6-26.8,7.9-38.5,15.4
			c-23.6,15-40.7,39-52.4,64.9c-11.8,26-18.8,54.2-23.2,82.6c-2.2,14.2-3.7,28.6-4.6,43c-0.4,7.2-0.7,14.4-0.9,21.6l-0.1,10.8
			l0.1,5.4c0,1.8,0,3.6,0.8,5.3c0.8,1.6,0.2,3.6-1.4,4.4c-1.6,0.8-3.6,0.2-4.4-1.4C2080.7,1858.7,2080.7,1857.8,2081,1856.9
			L2081,1856.9z"/>
	</g>
	<g>
		<g>
			<path class="st3" d="M1777.2,42.2c-87.6-0.7-176,13.2-254.2,45.6c-182,75.5-336.5,275.3-276,479.4
				c19.6,66.3,9.3,139.5,75.4,168.3c35.7,15.6,133.1,24.9,170.1,12.6c98.4-32.7,163-122,109.5-221.1c-17.1-31.7-39.3-60.7-54.1-93.6
				s-21.5-71.9-6.5-104.7c29.6-64.3,127.9-84.8,191.7-82.8c75.3,2.3,143.5,39.5,184,103.4c50.5,79.6,63.3,176.4,55.9,268.8
				c-7.9,98.9-49.6,174.4-112.1,250.2c-53.8,65.3-113,128-148.8,204.7c-32.8,70.4-43.5,148.4-45,225.4
				c-0.3,14.9-74.5,155.6-74.2,198.6c0,6.1,84.2,26.2,90.3,26.3c31.7,0.4,121.4,1.4,154.4,1.7c6.8,0.1,12.4-5.4,12.5-12.1
				c2.4-209.1,66.7-408.4,229.4-548.8c59.2-51.1,123-92.7,169.1-157.2c65.6-91.9,98-182.4,88.7-295.8
				c-8.5-103.6-42.7-207.3-110.2-287.6c-72.6-86.4-178.8-140.3-289.2-163.6C1886.4,48.8,1831.9,42.6,1777.2,42.2z"/>
			<path class="st3" d="M1938.7,1759.2c0,96.1-53.3,181.2-149.4,181.2c-20.8,0-91.4,0.2-109.9-6.5c-67-24.2-67.3-75.7-67.3-151.1
				c0-96.1,32.5-190.7,128.6-190.7S1938.7,1663.1,1938.7,1759.2z"/>
		</g>
		<g>
			<path class="st4" d="M1693.9,20.3c-87.6-0.7-176,13.2-254.2,45.6c-182,75.5-336.5,275.3-276,479.4
				c19.6,66.3,65,149.8,131.1,178.6c35.7,15.6,77.3,14.6,114.4,2.3c98.4-32.7,163-122,109.5-221.1c-17.1-31.7-39.3-60.7-54.1-93.6
				c-14.8-32.9-21.5-71.9-6.5-104.7c29.6-64.3,127.9-84.8,191.7-82.8c75.3,2.3,143.5,39.5,184,103.4
				c50.5,79.6,63.3,176.4,55.9,268.8c-7.9,98.9-49.6,174.4-112.1,250.2c-53.8,65.3-113,128-148.8,204.7
				c-32.8,70.4-43.5,148.4-45,225.4c-0.3,14.9,4.7,170.8,5.1,213.8c0,6.1,4.9,11,11,11c31.7,0.4,121.4,1.4,154.4,1.7
				c6.8,0.1,12.4-5.4,12.5-12.1c2.4-209.1,66.7-408.4,229.4-548.8c59.2-51.1,123-92.7,169.1-157.2c65.6-91.9,98-182.4,88.7-295.8
				c-8.5-103.6-42.7-207.3-110.2-287.6C2071.3,115,1965,61,1854.6,37.7C1803.1,26.9,1748.7,20.7,1693.9,20.3z"/>
			<circle class="st4" cx="1703" cy="1760.9" r="174.1"/>
		</g>
		<path class="st5" d="M1221.3,525.4c-1,0-1.9-0.7-2.2-1.8c-12.2-55.1-14-141.3,46.8-239.5c59.3-95.8,142.5-159.9,247.2-190.5
			c112-32.7,244.9-25.7,395.1,20.8c1.2,0.4,1.8,1.6,1.5,2.8c-0.4,1.2-1.6,1.8-2.8,1.5C1618.3,29.4,1392,89,1269.7,286.5
			c-60,96.8-58.2,181.9-46.2,236.1c0.3,1.2-0.5,2.4-1.7,2.7C1221.7,525.4,1221.5,525.4,1221.3,525.4z"/>
		<path class="st5" d="M1258,614c-0.7,0-1.4-0.3-1.8-0.9c-0.5-0.7-13.1-18.1-24.7-48.6c-0.4-1.2,0.1-2.4,1.3-2.9
			c1.1-0.4,2.4,0.1,2.9,1.3c11.4,29.9,24,47.4,24.2,47.5c0.7,1,0.5,2.4-0.5,3.1C1258.9,613.9,1258.4,614,1258,614z"/>
		<path class="st5" d="M1761.3,1648.1c-0.3,0-0.7-0.1-1-0.2c-17.8-9-37.1-13.6-57.2-13.6c-1.2,0-2.2-1-2.2-2.2s1-2.2,2.2-2.2
			c20.9,0,40.8,4.8,59.3,14.1c1.1,0.6,1.5,1.9,1,3C1762.9,1647.7,1762.1,1648.1,1761.3,1648.1z"/>
		<path class="st5" d="M1630.9,1870.1c-0.4,0-0.9-0.1-1.2-0.4c-36.2-24.5-57.8-65.1-57.8-108.8c0-48.4,26.5-92.7,69.2-115.6
			c1.1-0.6,2.4-0.2,3,0.9c0.6,1.1,0.2,2.4-0.9,3c-41.2,22.1-66.8,64.9-66.8,111.7c0,42.2,20.9,81.4,55.9,105.1
			c1,0.7,1.3,2.1,0.6,3.1C1632.3,1869.8,1631.6,1870.1,1630.9,1870.1z"/>
	</g>
	<g>
		<g class="st6">
			<path class="st7" d="M1123.9,345.9c-1.8,2.3-5.1,2.6-7.4,0.8c-4.4-3.6-9-7-13.7-10.2c-2.4-1.6-3-4.8-1.5-7.2c0,0,0-0.1,0.1-0.1
				c1.6-2.4,4.9-3,7.3-1.4c5,3.4,9.8,7,14.4,10.7c2.1,1.7,2.6,4.7,1.1,7C1124.2,345.7,1124.1,345.8,1123.9,345.9z M1078.9,322.6
				c-5.1-2.5-10.3-4.8-15.6-6.9c-2.7-1.1-4-4.1-3-6.8c1.1-2.7,4.1-4,6.8-3c5.5,2.2,11.1,4.6,16.4,7.3c2.6,1.3,3.7,4.4,2.4,7.1
				c-0.1,0.2-0.2,0.4-0.3,0.5C1084.2,323,1081.3,323.8,1078.9,322.6z M1036.8,307.4c-5.5-1.3-11.1-2.4-16.7-3.2
				c-2.9-0.4-4.9-3.1-4.4-6c0.4-2.9,3.1-4.9,6-4.4c5.9,0.9,11.8,2,17.6,3.4c2.8,0.7,4.6,3.5,3.9,6.3c-0.1,0.6-0.4,1.2-0.7,1.6
				C1041.3,307,1039,308,1036.8,307.4z M992.4,302c-5.7,0-11.4,0.1-17.1,0.6c-2.9,0.2-5.4-1.9-5.7-4.8c-0.2-2.9,1.9-5.4,4.8-5.7
				c5.9-0.5,12-0.7,18-0.6c2.9,0,5.2,2.4,5.2,5.3c0,1-0.3,2-0.8,2.8C996,301.1,994.3,302,992.4,302z M948,306.6
				c-5.5,1.2-11.1,2.7-16.5,4.3c-2.8,0.9-5.7-0.7-6.6-3.5c-0.9-2.8,0.7-5.7,3.5-6.6c5.7-1.8,11.6-3.3,17.4-4.6
				c2.8-0.6,5.6,1.2,6.3,4c0.3,1.4,0,2.9-0.7,4C950.5,305.5,949.4,306.3,948,306.6z M905.6,321c-5.1,2.4-10.2,5.1-15.1,7.9
				c-2.5,1.5-5.7,0.6-7.2-1.9c-1.5-2.5-0.6-5.7,1.9-7.2c5.2-3,10.5-5.8,15.9-8.3c2.6-1.2,5.8-0.1,7,2.5c0.8,1.7,0.6,3.6-0.4,5.1
				C907.3,319.9,906.5,320.6,905.6,321z M786.9,476.5c-2.9-0.4-4.9-3.1-4.4-6c0.9-5.9,2-11.8,3.4-17.6c0.7-2.8,3.5-4.6,6.4-3.9
				c2.8,0.7,4.6,3.5,3.9,6.4c-1.3,5.5-2.4,11.2-3.3,16.7c-0.1,0.8-0.4,1.5-0.8,2.1C791,475.8,789,476.8,786.9,476.5z M867.5,344.4
				c-4.5,3.5-8.8,7.2-13,11.1c-2.1,2-5.5,1.9-7.4-0.3c-2-2.1-1.8-5.5,0.3-7.4c4.4-4.1,9-8,13.7-11.6c2.3-1.8,5.6-1.4,7.4,0.9
				c1.4,1.8,1.5,4.3,0.3,6.1C868.4,343.5,868,344,867.5,344.4z M797.7,431.8c-2.7-1.1-4-4.1-3-6.8c2.2-5.5,4.6-11.1,7.3-16.4
				c1.3-2.6,4.5-3.7,7.1-2.4c2.6,1.3,3.7,4.5,2.4,7.1c-2.5,5.1-4.9,10.3-6.9,15.6c-0.1,0.3-0.3,0.6-0.5,0.9
				C802.7,431.9,800,432.8,797.7,431.8z M835.6,375.6c-3.6,4.4-7,9-10.2,13.7c-1.6,2.4-4.9,3-7.3,1.4c-2.4-1.6-3-4.8-1.5-7.2
				c0,0,0-0.1,0.1-0.1c3.4-4.9,7-9.8,10.7-14.4c1.8-2.3,5.2-2.6,7.4-0.8c2.1,1.7,2.5,4.7,1.1,7C835.8,375.3,835.7,375.5,835.6,375.6
				z"/>
			<path class="st8" d="M789.9,511.1c0.6-0.9,0.9-1.9,0.8-3c-0.1-2.7-0.1-5.5-0.1-8.2c0-2.9-2.3-5.3-5.2-5.3c-2.9,0-5.3,2.3-5.3,5.2
				c0,2.9,0,5.8,0.1,8.6c0.1,2.9,2.5,5.2,5.4,5.1C787.4,513.4,789,512.4,789.9,511.1z"/>
		</g>
		<g class="st6">
			<path class="st9" d="M857.2,656.9c1.4-2.1,1.1-5-0.9-6.8c-2-1.8-4-3.7-6-5.6c-2.1-2-5.4-2-7.4,0.1c-2,2.1-2,5.4,0.1,7.5
				c2.1,2,4.2,4,6.3,5.9c2.2,2,5.5,1.8,7.4-0.4C856.9,657.3,857.1,657.1,857.2,656.9z"/>
			<path class="st7" d="M1161,625.3c-1.7,2.4-5,2.9-7.4,1.2c-2.4-1.7-2.9-5-1.2-7.4c3.2-4.5,6.3-9.2,9.3-14c1.5-2.5,4.7-3.3,7.2-1.8
				c2.5,1.5,3.3,4.7,1.8,7.2c-1.3,2.1-2.6,4.2-3.9,6.2C1165,619.7,1163,622.5,1161,625.3z M1176.9,587.8c-2.7-1.2-3.9-4.3-2.8-6.9
				c2.2-5.1,4.2-10.4,6-15.7c0.9-2.8,3.9-4.2,6.7-3.3c2.8,0.9,4.2,3.9,3.3,6.7c-1.9,5.6-4,11.1-6.3,16.5c-0.1,0.3-0.3,0.5-0.4,0.8
				C1182.1,587.9,1179.3,588.8,1176.9,587.8z M1142.6,647.4c-4,4.2-8.3,8.4-12.7,12.3c-2.2,1.9-5.5,1.7-7.4-0.5
				c-1.9-2.2-1.7-5.5,0.5-7.4c4.2-3.7,8.3-7.6,12.1-11.6c2-2.1,5.3-2.2,7.4-0.2c1.9,1.8,2.1,4.6,0.8,6.7
				C1143.1,646.9,1142.9,647.1,1142.6,647.4z M1191.3,544.9c-2.9-0.5-4.7-3.3-4.2-6.1c1-5.5,1.8-11.1,2.4-16.6
				c0.3-2.9,2.9-5,5.8-4.7c2.9,0.3,5,2.9,4.7,5.8c-0.6,5.8-1.4,11.7-2.5,17.5c-0.1,0.7-0.4,1.3-0.8,1.9
				C1195.5,544.4,1193.4,545.3,1191.3,544.9z M1107.2,677.1c-4.9,3.2-10,6.3-15.1,9.2c-2.5,1.4-5.8,0.5-7.2-2.1
				c-1.4-2.6-0.5-5.8,2.1-7.2c4.9-2.7,9.7-5.6,14.4-8.7c2.4-1.6,5.7-1,7.3,1.5c1.2,1.8,1.1,4.1,0,5.8
				C1108.3,676.2,1107.8,676.7,1107.2,677.1z M1066,698.3c-5.5,2.1-11.1,4-16.7,5.6c-2.8,0.8-5.7-0.8-6.5-3.6
				c-0.8-2.8,0.8-5.7,3.6-6.5c5.3-1.6,10.7-3.4,15.9-5.4c2.7-1,5.8,0.3,6.8,3c0.6,1.6,0.4,3.4-0.5,4.8
				C1068,697.2,1067.1,697.9,1066,698.3z M1021.2,710.1c-5.8,0.9-11.7,1.5-17.6,1.9c-2.9,0.2-5.4-2-5.6-4.9c-0.2-2.9,2-5.4,4.9-5.6
				c5.6-0.4,11.2-0.9,16.7-1.8c2.9-0.4,5.6,1.6,6,4.4c0.2,1.3-0.1,2.6-0.8,3.6C1024.1,709,1022.8,709.9,1021.2,710.1z M974.9,711.8
				c-5.9-0.4-11.8-1.1-17.6-2c-2.9-0.5-4.8-3.2-4.4-6c0.5-2.9,3.2-4.8,6-4.4c5.5,0.9,11.1,1.5,16.7,1.9c2.9,0.2,5.1,2.7,4.9,5.6
				c-0.1,0.9-0.4,1.8-0.8,2.5C978.7,711,976.9,711.9,974.9,711.8z M929.4,703.3c-5.6-1.7-11.2-3.7-16.7-5.9c-2.7-1.1-4-4.1-2.9-6.8
				c1.1-2.7,4.1-4,6.8-2.9c5.2,2.1,10.5,3.9,15.8,5.6c2.8,0.8,4.4,3.8,3.5,6.6c-0.1,0.5-0.4,0.9-0.6,1.3
				C934.1,703,931.7,704,929.4,703.3z M886.8,685c-3.8-2.1-7.5-4.4-11.1-6.7c-1.3-0.9-2.6-1.7-3.9-2.6c-2.4-1.6-3.1-4.9-1.4-7.3
				c1.6-2.4,4.9-3,7.3-1.4c1.2,0.8,2.5,1.7,3.7,2.5c3.4,2.2,7,4.4,10.6,6.4c2.5,1.4,3.4,4.6,2,7.2c-0.1,0.1-0.1,0.2-0.2,0.3
				C892.3,685.6,889.3,686.4,886.8,685z"/>
			<path class="st8" d="M1200,497.5c0.6-0.9,0.9-1.9,0.8-3.1c-0.1-2.9-0.3-5.8-0.5-8.6c-0.2-2.9-2.8-5.1-5.7-4.8
				c-2.9,0.2-5.1,2.8-4.8,5.7c0.2,2.7,0.4,5.5,0.5,8.2c0.1,2.9,2.5,5.2,5.5,5.1C1197.6,499.8,1199.1,498.8,1200,497.5z"/>
		</g>
		<g>
			<path class="st7" d="M1133.9,435.9c-0.3-1-1.2-1.7-2.3-1.7l-30-0.7c-7.2-12-16.4-22.9-27.3-32.3l4.3-29.6c0.1-1-0.4-2.1-1.3-2.5
				l-32-16.4c-0.9-0.5-2.1-0.3-2.8,0.4l-21.6,20.7c-14-3.5-28.2-4.6-42.1-3.5l-17.9-24c-0.6-0.8-1.7-1.2-2.7-0.9l-34.2,11
				c-1,0.3-1.7,1.2-1.7,2.3l-0.7,30c-12,7.2-22.9,16.4-32.3,27.3l-29.6-4.3c-1-0.2-2.1,0.4-2.5,1.3l-16.4,32
				c-0.5,0.9-0.3,2.1,0.4,2.8l20.7,21.6c-3.5,14-4.6,28.2-3.5,42.1l-24,17.9c-0.8,0.6-1.2,1.7-0.9,2.7l11,34.2
				c0.3,1,1.2,1.7,2.3,1.7l30,0.7c7.2,12,16.4,22.9,27.3,32.3l-4.3,29.6c-0.2,1,0.4,2.1,1.3,2.5l32,16.4c0.9,0.5,2.1,0.3,2.8-0.4
				l21.6-20.7c14,3.5,28.2,4.6,42.1,3.5l17.9,24c0.6,0.8,1.7,1.2,2.7,0.9l34.2-11c1-0.3,1.7-1.2,1.7-2.3l0.7-30
				c12-7.2,22.9-16.4,32.3-27.3l29.6,4.3c1,0.1,2.1-0.4,2.5-1.3l16.4-32c0.5-0.9,0.3-2.1-0.4-2.8l-20.7-21.6
				c3.5-14,4.6-28.2,3.5-42.1l24-17.9c0.8-0.6,1.2-1.7,0.9-2.7L1133.9,435.9z"/>
			<g>
				<path class="st10" d="M1016.2,525.1c-13.2,14.9-36.1,16.4-51,3.2c-7.2-6.4-11.6-15.2-12.2-24.8c-0.6-9.6,2.6-18.9,9-26.2
					c13.2-14.9,36.1-16.4,51-3.2c13.6,12,16,32,6.4,46.8C1018.5,522.3,1017.4,523.7,1016.2,525.1z M961.5,502.9
					c0.5,7.4,3.8,14.1,9.3,19c11.5,10.1,29,9,39.1-2.5c10.1-11.5,9-29-2.5-39.1c-11.5-10.1-29-9-39.1,2.5c-0.9,1-1.7,2.1-2.5,3.3
					C962.6,491.1,961.1,496.9,961.5,502.9z"/>
			</g>
			<path class="st10" d="M1062.8,549.9c1.6-2.5,3.2-5.2,4.6-7.9l0,0c0.4-0.9,0.9-1.7,1.3-2.6c2-4.3,3.7-8.8,5.1-13.3
				c0-0.1,0-0.1,0.1-0.2c0.1-0.2,0.1-0.4,0.1-0.5c0.1-0.3,0.2-0.7,0.3-1c0.2-0.9-0.1-1.8-0.9-2.3c-0.2-0.1-0.4-0.2-0.6-0.3
				c-1.1-0.3-2.3,0.4-2.6,1.5c-1.6,5.8-3.7,11.4-6.5,16.8c-13.7,26.7-39.7,43-67.6,45.5c-15.5,1.4-31.6-1.4-46.4-9
				c-2.6-1.3-5.1-2.8-7.5-4.4c-16.3-10.6-28.3-26.3-34.3-45.1c-6.9-21.5-5-44.5,5.3-64.5c21.4-41.5,72.5-57.9,114-36.5
				c2.6,1.3,5,2.8,7.4,4.3c10.4,6.8,19.2,15.7,25.7,26.2c0.2,0.3,0.4,0.5,0.6,0.7c0.7,0.4,1.5,0.5,2.3,0c1-0.6,1.3-1.9,0.7-2.9
				c-6.9-11.1-16.1-20.5-27-27.5c-2.5-1.6-5.1-3.1-7.8-4.5c-43.6-22.4-97.2-5.2-119.6,38.3c-10.9,21.1-12.9,45.2-5.6,67.8
				c6.3,19.7,18.9,36.2,36,47.3c2.5,1.7,5.2,3.2,7.9,4.6c21.1,10.9,45.2,12.9,67.8,5.6C1035.2,579.6,1051.7,567,1062.8,549.9z"/>
		</g>
	</g>
	<g>
		<g class="st6">
			<path class="st11" d="M1338.6,270.4c0.8-1.2,0.7-2.8-0.3-3.9c-1.8-2.1-3.7-4.2-5.6-6.2c-1.2-1.3-3.3-1.3-4.6-0.1
				c-1.3,1.2-1.3,3.3-0.1,4.6c1.8,1.9,3.6,3.9,5.3,5.9c1.2,1.4,3.2,1.5,4.6,0.4C1338.3,270.9,1338.5,270.7,1338.6,270.4z"/>
			<path class="st0" d="M1320.5,253.3c-1.1,1.4-3.2,1.6-4.6,0.5c-3.5-2.8-7.3-5.5-11.1-8c-0.8-0.5-1.6-1-2.4-1.5c-1.5-0.9-2-3-1-4.5
				c1-1.4,3-2,4.5-1c0.9,0.5,1.7,1.1,2.5,1.6c4,2.6,7.9,5.4,11.6,8.4c1.3,1.1,1.6,2.9,0.7,4.3
				C1320.6,253.1,1320.5,253.2,1320.5,253.3z M1287.9,236.4c-5-2.3-10.2-4.3-15.4-6c-1.7-0.5-2.7-2.4-2.1-4.1
				c0.5-1.7,2.4-2.7,4.1-2.1c5.5,1.8,10.9,3.9,16.1,6.3c1.6,0.8,2.3,2.7,1.6,4.3c-0.1,0.1-0.1,0.3-0.2,0.4
				C1291.1,236.5,1289.3,237,1287.9,236.4z M1256.5,226.3c-5.4-1-10.9-1.7-16.4-2c-1.8-0.1-3.2-1.7-3-3.4c0.1-1.8,1.7-3.2,3.4-3
				c5.8,0.4,11.5,1.1,17.2,2.1c1.8,0.3,2.9,2,2.6,3.8c-0.1,0.4-0.2,0.8-0.5,1.2C1259.1,225.9,1257.8,226.5,1256.5,226.3z
				 M1223.5,224.3c-5.5,0.3-11,1-16.4,2c-1.8,0.3-3.5-0.8-3.8-2.6c-0.3-1.8,0.8-3.5,2.6-3.8c5.7-1.1,11.4-1.8,17.2-2.1
				c1.8-0.1,3.3,1.3,3.4,3c0,0.7-0.2,1.4-0.5,2C1225.5,223.6,1224.6,224.2,1223.5,224.3z M1191.1,230.3c-5.2,1.7-10.4,3.7-15.4,6
				c-1.6,0.7-3.6,0-4.3-1.6c-0.7-1.6,0-3.6,1.6-4.3c5.2-2.4,10.7-4.5,16.1-6.2c1.7-0.5,3.5,0.4,4.1,2.1c0.3,1,0.1,2-0.4,2.8
				C1192.5,229.6,1191.9,230.1,1191.1,230.3z M1161.1,244.1c-4.7,2.9-9.2,6.1-13.5,9.5c-1.4,1.1-3.4,0.9-4.6-0.5
				c-1.1-1.4-0.9-3.4,0.5-4.6c4.5-3.6,9.2-7,14.1-10c1.5-0.9,3.5-0.5,4.5,1.1c0.7,1.1,0.6,2.5,0,3.5
				C1161.9,243.5,1161.6,243.8,1161.1,244.1z M1135.5,264.7c-3.8,3.9-7.4,8.2-10.7,12.6c-1.1,1.4-3.1,1.7-4.6,0.6
				c-1.4-1.1-1.7-3.1-0.6-4.6c3.5-4.6,7.3-9,11.3-13.2c1.3-1.3,3.3-1.3,4.6-0.1c1.1,1.1,1.3,2.8,0.5,4.1
				C1135.7,264.4,1135.6,264.6,1135.5,264.7z M1104,307.6c-1.7-0.7-2.4-2.6-1.7-4.3c1.9-4.6,4.2-9.1,6.6-13.5c0.4-0.7,0.7-1.3,1.1-2
				c0.8-1.6,2.9-2.1,4.4-1.2c1.6,0.9,2.1,2.9,1.2,4.4c-0.4,0.6-0.7,1.2-1.1,1.9c-2.3,4.2-4.5,8.5-6.3,12.9c-0.1,0.2-0.2,0.4-0.3,0.5
				C1107.1,307.7,1105.5,308.2,1104,307.6z"/>
		</g>
		<g class="st6">
			<path class="st0" d="M1348.5,436.2c-3.2,4.7-6.6,9.3-10.3,13.6c-1.2,1.4-3.2,1.5-4.6,0.3c-1.4-1.2-1.5-3.2-0.3-4.6
				c3.5-4.1,6.8-8.4,9.8-12.9c1-1.5,3-1.9,4.5-0.9C1349,432.7,1349.4,434.7,1348.5,436.2C1348.5,436.2,1348.5,436.2,1348.5,436.2z
				 M1352.7,423c-1.6-0.8-2.2-2.8-1.4-4.4c2.4-4.8,4.6-9.8,6.5-14.9c0.6-1.7,2.5-2.6,4.2-1.9c1.7,0.6,2.6,2.5,1.9,4.2
				c-1.9,5.3-4.2,10.6-6.8,15.6c-0.1,0.1-0.1,0.2-0.2,0.3C1356,423.2,1354.2,423.7,1352.7,423z M1326.3,462
				c-4.2,3.8-8.7,7.4-13.3,10.7c-1.5,1-3.5,0.7-4.5-0.8c-1-1.5-0.7-3.5,0.8-4.5c4.4-3.1,8.7-6.5,12.7-10.2c1.3-1.2,3.4-1.1,4.6,0.2
				c1,1.1,1.1,2.8,0.3,4C1326.7,461.6,1326.5,461.8,1326.3,462z M1364.8,392c-1.8-0.4-2.8-2.2-2.4-3.9c1.2-5.3,2.1-10.7,2.7-16
				c0.2-1.8,1.8-3.1,3.6-2.9c1.8,0.2,3.1,1.8,2.9,3.6c-0.6,5.6-1.5,11.3-2.8,16.8c-0.1,0.4-0.2,0.7-0.4,1
				C1367.5,391.7,1366.1,392.3,1364.8,392z M1298.5,481.7c-5,2.7-10.2,5.1-15.5,7.2c-1.7,0.7-3.6-0.2-4.2-1.8
				c-0.7-1.7,0.2-3.6,1.8-4.2c5-2,10-4.3,14.7-6.8c1.6-0.9,3.6-0.3,4.4,1.3c0.6,1.1,0.5,2.4-0.1,3.3
				C1299.4,481,1299,481.4,1298.5,481.7z M1266.9,494.1c-5.5,1.4-11.1,2.5-16.7,3.3c-1.8,0.2-3.4-1-3.7-2.8c-0.2-1.8,1-3.4,2.8-3.7
				c5.3-0.7,10.7-1.8,16-3.1c1.7-0.4,3.5,0.6,4,2.3c0.2,0.9,0.1,1.8-0.4,2.6C1268.3,493.4,1267.7,493.9,1266.9,494.1z M1233.1,498.6
				c-5.7,0.1-11.4-0.2-17-0.8c-1.8-0.2-3.1-1.8-2.9-3.6c0.2-1.8,1.8-3.1,3.6-2.9c5.4,0.6,10.8,0.9,16.2,0.8c1.8,0,3.3,1.4,3.3,3.2
				c0,0.7-0.2,1.3-0.5,1.8C1235.3,498,1234.3,498.6,1233.1,498.6z"/>
			<path class="st11" d="M1371.7,357.4c0.3-0.5,0.5-1.2,0.5-1.8c-0.1-2.8-0.2-5.6-0.4-8.3c-0.1-1.8-1.7-3.1-3.5-3
				c-1.8,0.1-3.1,1.7-3,3.5c0.2,2.6,0.3,5.3,0.4,7.9c0,1.8,1.5,3.2,3.3,3.2C1370.2,358.9,1371.1,358.3,1371.7,357.4z"/>
		</g>
		<g>
			<path class="st1" d="M1327.6,313.9c-0.2-0.7-0.8-1.1-1.5-1.1l-20-0.4c-4.8-8-10.9-15.4-18.3-21.6l2.9-19.8
				c0.1-0.7-0.3-1.4-0.9-1.7l-21.4-11c-0.6-0.3-1.4-0.2-1.9,0.3l-14.5,13.9c-9.3-2.3-18.9-3.1-28.2-2.3l-12-16.1
				c-0.4-0.6-1.2-0.8-1.8-0.6l-22.9,7.3c-0.7,0.2-1.1,0.8-1.1,1.5l-0.4,20c-8,4.8-15.4,10.9-21.6,18.3l-19.8-2.9
				c-0.7-0.1-1.4,0.3-1.7,0.9l-11,21.4c-0.3,0.6-0.2,1.4,0.3,1.9l13.9,14.5c-2.3,9.3-3.1,18.9-2.3,28.2l-16.1,12
				c-0.6,0.4-0.8,1.2-0.6,1.8l7.3,22.9c0.2,0.7,0.8,1.1,1.5,1.1l20,0.4c4.8,8,10.9,15.4,18.3,21.6l-2.9,19.8
				c-0.1,0.7,0.3,1.4,0.9,1.7l21.4,11c0.6,0.3,1.4,0.2,1.9-0.3l14.5-13.9c9.3,2.3,18.9,3.1,28.2,2.3l12,16.1
				c0.4,0.6,1.2,0.8,1.8,0.6l22.9-7.3c0.7-0.2,1.1-0.8,1.1-1.5l0.4-20c8-4.8,15.4-10.9,21.6-18.3l19.8,2.9c0.7,0.1,1.4-0.3,1.7-0.9
				l11-21.4c0.3-0.6,0.2-1.4-0.3-1.9l-13.9-14.5c2.3-9.3,3.1-18.9,2.3-28.2l16.1-12c0.6-0.4,0.8-1.2,0.6-1.8L1327.6,313.9z"/>
			<g>
				<path class="st10" d="M1249.2,373.8c-4.3,4.9-10.4,7.9-16.9,8.3c-6.6,0.4-12.9-1.8-17.8-6.1c-10.2-9-11.2-24.5-2.2-34.7
					c9-10.2,24.6-11.2,34.7-2.2c4.9,4.3,7.9,10.4,8.3,16.9c0.3,5.3-1,10.5-3.9,14.9C1250.8,371.9,1250,372.9,1249.2,373.8z
					 M1218.8,371.1c3.6,3.2,8.3,4.8,13.1,4.5c4.8-0.3,9.2-2.5,12.4-6.1l0,0c3.2-3.6,4.8-8.3,4.5-13.1c-0.3-4.8-2.5-9.2-6.1-12.4
					c-7.5-6.6-18.9-5.9-25.6,1.6c-0.6,0.7-1.1,1.4-1.6,2.1C1210.7,355.1,1212,365.1,1218.8,371.1z"/>
			</g>
			<path class="st10" d="M1281.6,391.1c1.1-1.7,2.2-3.5,3.1-5.4c1.9-3.7,3.4-7.6,4.6-11.6c0-0.2,0.1-0.4,0.1-0.5
				c0.4-1.4-0.2-2.8-1.4-3.6c-0.3-0.2-0.6-0.3-0.9-0.4c-1.7-0.5-3.5,0.6-4,2.3c-1,3.8-2.4,7.4-4.2,10.9l0,0
				c-0.1,0.2-0.2,0.4-0.3,0.6c-4.3,8.2-10.5,14.9-18,19.9c-4.1,2.7-8.5,4.9-13.3,6.4c0,0-0.1,0-0.1,0c-0.1,0-0.2,0.1-0.4,0.1
				c-13.9,4.5-28.8,3.2-41.8-3.5c-1.7-0.9-3.3-1.8-4.9-2.8c-10.5-6.9-18.3-17-22.2-29.2c-4.5-13.9-3.2-28.8,3.5-41.8
				c6.7-13,18.1-22.6,32-27.1c13.9-4.5,28.8-3.2,41.8,3.5c1.7,0.9,3.3,1.8,4.8,2.8c6.7,4.4,12.4,10.2,16.6,17c0.3,0.4,0.6,0.8,1,1
				c1,0.7,2.4,0.7,3.5,0c1.5-1,2-3,1-4.5c-4.7-7.6-11.1-14.1-18.6-19c-1.7-1.1-3.5-2.2-5.4-3.1c-14.6-7.5-31.2-8.9-46.8-3.9
				c-15.6,5-28.3,15.8-35.8,30.3c-7.5,14.6-8.9,31.2-3.9,46.8c4.3,13.6,13.1,25,24.9,32.6c1.8,1.1,3.6,2.2,5.5,3.2
				C1230.4,426.6,1264.7,417.1,1281.6,391.1z"/>
		</g>
	</g>
	<g>
		<polygon class="st9" points="1997.6,612 1903,708.7 2016.5,678.4 		"/>
		<path class="st9" d="M2560.6,652L2023,678.1c-13.8,0.7-25.4-10.3-25.4-24.2V432.8c0-24,19.1-43.7,43.1-44.5l484.5-15
			c36.1,0,65.3,29.3,65.3,65.3v181.9C2590.6,637.3,2577.4,651.2,2560.6,652z"/>
		<path class="st12" d="M2039,669.2c-8.6,0-16.6-3.2-22.9-9.2c-6.6-6.3-10.3-14.9-10.3-24.1V436.6c0-23.5,18.8-42.5,42.9-43.2
			l469.1-14.2c35.6,0,64.5,28.2,64.5,62.9V614c0,16.5-13.2,30.1-30.2,30.9l-511.5,24.2C2040.1,669.2,2039.6,669.2,2039,669.2z
			 M2517.9,381.6l-469.1,14.2c-22.8,0.7-40.6,18.6-40.6,40.9V636c0,8.5,3.4,16.5,9.6,22.4c6.2,5.9,14.3,8.9,22.8,8.5l511.5-24.2
			c15.7-0.7,27.9-13.3,27.9-28.6V442.2C2580,408.8,2552.2,381.6,2517.9,381.6z"/>
		<linearGradient id="SVGID_1_" gradientUnits="userSpaceOnUse" x1="2079.0403" y1="437.7763" x2="2524.3347" y2="437.7763">
			<stop  offset="0" style="stop-color:#DAE3FE"/>
			<stop  offset="1" style="stop-color:#E9EFFD"/>
		</linearGradient>
		<path class="st13" d="M2516.3,421.9L2086.4,438c-4.2,0.2-7.5,3-7.4,6.2l0.2,3.8c0.1,3.2,3.6,5.7,7.8,5.6l429.9-15.7
			c4.2-0.2,7.6-3,7.4-6.2l-0.2-4.2C2524,424.3,2520.5,421.8,2516.3,421.9z"/>
		
			<linearGradient id="SVGID_00000082328613896795266130000006991128813229390001_" gradientUnits="userSpaceOnUse" x1="2040.5747" y1="546.8497" x2="2485.8796" y2="546.8497">
			<stop  offset="0" style="stop-color:#DAE3FE"/>
			<stop  offset="1" style="stop-color:#E9EFFD"/>
		</linearGradient>
		<path style="fill:url(#SVGID_00000082328613896795266130000006991128813229390001_);" d="M2477.9,530.8l-429.9,16
			c-4.2,0.2-7.5,3.1-7.4,6.4l0.2,3.9c0.1,3.4,3.6,5.9,7.8,5.8l429.9-15.6c4.2-0.2,7.6-3,7.4-6.4l-0.2-4.3
			C2485.5,533.2,2482.1,530.6,2477.9,530.8z"/>
		
			<linearGradient id="SVGID_00000039106174202715268510000002864169429067430823_" gradientUnits="userSpaceOnUse" x1="2040.5776" y1="593.501" x2="2536.9751" y2="593.501">
			<stop  offset="0" style="stop-color:#DAE3FE"/>
			<stop  offset="1" style="stop-color:#E9EFFD"/>
		</linearGradient>
		<path style="fill:url(#SVGID_00000039106174202715268510000002864169429067430823_);" d="M2528.1,576.3l-479.2,18.1
			c-4.7,0.2-8.4,3.1-8.3,6.5l0.2,4c0.1,3.4,4,6,8.7,5.8l479.3-17.7c4.7-0.2,8.4-3.1,8.3-6.5l-0.2-4.4
			C2536.6,578.7,2532.8,576.1,2528.1,576.3z"/>
		
			<linearGradient id="SVGID_00000042695396401713438910000007816471516131638405_" gradientUnits="userSpaceOnUse" x1="2042.486" y1="498.5794" x2="2285.3535" y2="498.5794">
			<stop  offset="0" style="stop-color:#DAE3FE"/>
			<stop  offset="1" style="stop-color:#E9EFFD"/>
		</linearGradient>
		<path style="fill:url(#SVGID_00000042695396401713438910000007816471516131638405_);" d="M2280.6,486.1l-234.3,6.8
			c-2.3,0.1-4,3.2-3.8,7l0.2,4.4c0.2,3.8,2.2,6.8,4.4,6.7l234.3-6.4c2.3-0.1,4-3.2,3.8-7l-0.2-4.8
			C2284.9,489,2282.9,486,2280.6,486.1z"/>
		
			<linearGradient id="SVGID_00000016056627347909256570000002430150544156425129_" gradientUnits="userSpaceOnUse" x1="2313.738" y1="490.2397" x2="2543.3137" y2="490.2397">
			<stop  offset="0" style="stop-color:#DAE3FE"/>
			<stop  offset="1" style="stop-color:#E9EFFD"/>
		</linearGradient>
		<path style="fill:url(#SVGID_00000016056627347909256570000002430150544156425129_);" d="M2538.8,478l-221.5,6.3
			c-2.2,0.1-3.8,3.2-3.6,7l0.2,4.4c0.2,3.8,2.1,6.8,4.2,6.7l221.5-5.9c2.2-0.1,3.8-3.2,3.6-7l-0.2-4.8
			C2542.9,480.9,2541,477.9,2538.8,478z"/>
	</g>
	<g>
		<path class="st3" d="M1181.3,1872c0,0-4.4,25.1-6.6,49.9c-0.8,9.7,6.6,18.1,16.4,18.5c33.1,1.4,103.8,4.1,129.2,2.9
			c3.8-0.2,6.3-4.1,4.9-7.6l0,0c-1.2-3-3.5-5.4-6.4-6.7l-116.9-53.7L1181.3,1872z"/>
		
			<linearGradient id="SVGID_00000168115965059026928250000016869429141457236870_" gradientUnits="userSpaceOnUse" x1="7661.979" y1="1871.8629" x2="7699.9883" y2="1871.8629" gradientTransform="matrix(1 0 0 1 -6484.3511 0)">
			<stop  offset="0" style="stop-color:#FEBBBA"/>
			<stop  offset="1" style="stop-color:#FF928E"/>
		</linearGradient>
		<path style="fill:url(#SVGID_00000168115965059026928250000016869429141457236870_);" d="M1177.6,1857.2l3.6,30
			c0,0,20.5,9.5,34.4-1.2l-8.5-33.4L1177.6,1857.2z"/>
		<path class="st19" d="M1180.3,1293.1c-1.5,7.8-8.3,391.1,32.7,562.8c0.7,2.8-0.8,5.7-3.4,6.8c-6.3,2.6-18.6,6.3-33.4,6.8
			c-4.6,0.2-8.7-2.8-10-7.2c-11.7-39.8-67.8-239.5-75.1-430.2c-8.2-213.1,0-7.3,0-7.3l4.8-131.7L1180.3,1293.1z"/>
		<path class="st3" d="M1046.8,1885.1c0,0-7.1,12.7-13.9,46.3c-1.2,6.1,3,11.9,9.2,12.5c10.9,1.1,27.7,2.5,41.2,2.4
			c6.2,0,11.1-5.4,10.3-11.6c-1.5-12.3-6.1-32.4-20.5-48.1L1046.8,1885.1z"/>
		
			<linearGradient id="SVGID_00000140737359257179038550000010985060362660933294_" gradientUnits="userSpaceOnUse" x1="7524.9951" y1="1869.9139" x2="7557.812" y2="1869.9139" gradientTransform="matrix(1 0 0 1 -6484.3511 0)">
			<stop  offset="0" style="stop-color:#FEBBBA"/>
			<stop  offset="1" style="stop-color:#FF928E"/>
		</linearGradient>
		<path style="fill:url(#SVGID_00000140737359257179038550000010985060362660933294_);" d="M1040.6,1846.5l8.3,45.4
			c0,0,8.2,6.1,24.5,1.7l-4-48.8L1040.6,1846.5z"/>
		<path class="st19" d="M1018.2,1304.8c-33.5,202.2,7.3,499.7,21,558c0.8,3.6,3.7,6.3,7.3,6.9c6.1,1,16.2,1.8,26.2-1
			c3.4-1,5.8-4.1,6-7.7c1.8-47.1-1.5-336.1,29.7-450.3c1.6-5.8,5.1-10.8,10-14.3l60.6-43.1l4.6-69.6L1018.2,1304.8z"/>
		<g>
			<path class="st4" d="M1231.6,921.7c-100.4-1.7-211.2,26.4-211.2,26.4c-29.9,174.6-5.2,376-5.2,376
				c77.7,20.4,165.4-12.5,165.4-12.5c12.9-73,73.2-278.4,73.2-278.4c49.1-6.1,89.5-20.2,122.7-39c-25.4-29.4-37.4-66.9-42.5-89
				C1298.5,916.3,1262.6,922.2,1231.6,921.7z"/>
			
				<linearGradient id="SVGID_00000149357002186207899960000002404967439722318228_" gradientUnits="userSpaceOnUse" x1="-3517.3418" y1="654.0138" x2="-3450.2798" y2="845.6196" gradientTransform="matrix(-1 0 0 1 -2019.069 0)">
				<stop  offset="0" style="stop-color:#FEBBBA"/>
				<stop  offset="1" style="stop-color:#FF928E"/>
			</linearGradient>
			<path style="fill:url(#SVGID_00000149357002186207899960000002404967439722318228_);" d="M1528.2,773.8
				c-9.9-11.9-22.3-6.3-22.3-6.3c-14.8,62.4-92.2,113-171.8,137.7c5.2,22.1,17.2,59.6,42.5,89C1508.7,920,1528.2,773.8,1528.2,773.8
				z"/>
		</g>
		<g>
			
				<linearGradient id="SVGID_00000173847497971334840000000012827895826879912107_" gradientUnits="userSpaceOnUse" x1="-3574.6604" y1="674.0753" x2="-3507.5986" y2="865.6804" gradientTransform="matrix(-1 0 0 1 -2019.069 0)">
				<stop  offset="0" style="stop-color:#FEBBBA"/>
				<stop  offset="1" style="stop-color:#FF928E"/>
			</linearGradient>
			<path style="fill:url(#SVGID_00000173847497971334840000000012827895826879912107_);" d="M1525.8,776.9c1,3.3-10.9,8.3-18-5.1
				c-0.2-6.4-4.2-34-0.3-39.2c20.5-27.9,60.1-62.9,60.1-62.9c6.7,6.6,1.2,13.1,1.2,13.1l-19.2,20.1c4,7.3,8.9,13.4,11.2,22.2
				c1.7,6.7,0.7,13.8-2.7,19.9c-3.4,6.1-8,14-12.3,20.2C1537.6,776.8,1525.8,776.9,1525.8,776.9z"/>
			
				<linearGradient id="SVGID_00000150077552336159280840000004802456953698418366_" gradientUnits="userSpaceOnUse" x1="-3523.1423" y1="796.4915" x2="-3573.657" y2="694.5913" gradientTransform="matrix(-1 0 0 1 -2019.069 0)">
				<stop  offset="0" style="stop-color:#FEBBBA"/>
				<stop  offset="1" style="stop-color:#FF928E"/>
			</linearGradient>
			<path style="fill:url(#SVGID_00000150077552336159280840000004802456953698418366_);" d="M1541.2,715.8l-17.5,14.9l-5.5,14.8
				l15.6,17.4c0,0,5.3-29.4,9.2-35.7C1546.9,720.7,1544.9,717.7,1541.2,715.8z"/>
		</g>
		<path class="st4" d="M1059,1045.3l-38.5-97.2c0,0-93.8,63.7-109.2,144.5c17.7,1.3,50,5.9,81.5,21.9
			C999.7,1076.3,1059,1045.3,1059,1045.3z"/>
		
			<linearGradient id="SVGID_00000130626460712385275190000003576225170632028800_" gradientUnits="userSpaceOnUse" x1="7393.4771" y1="1155.3079" x2="7639.2153" y2="1155.3079" gradientTransform="matrix(1 0 0 1 -6484.3511 0)">
			<stop  offset="0" style="stop-color:#FEBBBA"/>
			<stop  offset="1" style="stop-color:#FF928E"/>
		</linearGradient>
		<path style="fill:url(#SVGID_00000130626460712385275190000003576225170632028800_);" d="M1140.9,1136.8c0,0-105.3,59.5-140.8,8.7
			c-7.4-10.6-9.1-21-7.3-31c-31.6-15.9-63.8-20.5-81.5-21.9c-4.7,24.4-2.2,50.3,12.1,76.4c62.2,113.8,231.5-6.3,231.5-6.3
			L1140.9,1136.8z"/>
		<g>
			<path class="st8" d="M1128.3,1212l57.5-200.7c0.7-2.3,2.6-3.9,4.9-4.2c10.4-1.2,40.6-4.6,75.4-7.6c42-3.5,90.7-6.4,119.8-4
				c4.1,0.3,6.6,4.7,4.8,8.4c-16.6,33.5-84.7,169.8-118.8,214.4c-1.1,1.5-2.9,2.3-4.7,2.3l-133.3-1.2
				C1130,1219.5,1127.2,1215.8,1128.3,1212z"/>
			<path class="st10" d="M1272.1,982.2l41.7-6.9c2.2-0.4,4,1.8,3.3,3.9l-4.1,12.5c-0.4,1.1-1.3,1.9-2.4,2l-40.1,5.4
				c-2.1,0.3-3.8-1.6-3.3-3.6l2.6-10.9C1269.9,983.3,1270.9,982.4,1272.1,982.2z"/>
			<path class="st10" d="M1240.9,1017.5l3.4-17.9c0.3-1.8,1.8-3.1,3.6-3.3l84.1-8.5c2.8-0.3,5.1,2.3,4.4,5.1l-5.4,22.3
				c-0.4,1.8-2,3.1-3.8,3.2l-82.2,4.1C1242.5,1022.5,1240.4,1020.1,1240.9,1017.5z"/>
			
				<linearGradient id="SVGID_00000121981668640455865650000011563281967547022271_" gradientUnits="userSpaceOnUse" x1="7620.9702" y1="1129.5425" x2="7697.5273" y2="1129.5425" gradientTransform="matrix(1 0 0 1 -6484.3511 0)">
				<stop  offset="0" style="stop-color:#FEBBBA"/>
				<stop  offset="1" style="stop-color:#FF928E"/>
			</linearGradient>
			<path style="fill:url(#SVGID_00000121981668640455865650000011563281967547022271_);" d="M1142.2,1163.6c0,0-8-32.9-4.8-44.6
				c3.2-11.7,9.5-26.7,30.3-23.4c20.9,3.3,45.5,12.1,45.5,12.1s-1.2,15.2-17.1,10.3l9.8,7.6c0,0-1.4,12.2-14.8,5.7l9.1,10.1
				c0,0-5.7,10-15.6,3.6C1174.8,1138.6,1170.1,1167.5,1142.2,1163.6z"/>
		</g>
		
			<linearGradient id="SVGID_00000067939609108840278990000004016816561306791333_" gradientUnits="userSpaceOnUse" x1="7582.1699" y1="892.5992" x2="7679.3267" y2="892.5992" gradientTransform="matrix(1 0 0 1 -6484.3511 0)">
			<stop  offset="0" style="stop-color:#FEBBBA"/>
			<stop  offset="1" style="stop-color:#FF928E"/>
		</linearGradient>
		<path style="fill:url(#SVGID_00000067939609108840278990000004016816561306791333_);" d="M1130,840.2l-31.9,92.4
			c-0.5,1.5,0.1,3.2,1.5,4c8.7,4.8,40.1,18.7,77.9-5.2c3.9-2.5,6.6-6.6,7.2-11.2l10.3-80H1130z"/>
		<g>
			
				<linearGradient id="SVGID_00000134948337230889408760000016649062665623887278_" gradientUnits="userSpaceOnUse" x1="199.6276" y1="2887.2236" x2="163.3212" y2="2767.4766" gradientTransform="matrix(0.746 -0.6659 0.6659 0.746 -853.4413 -1190.1472)">
				<stop  offset="0" style="stop-color:#FEBBBA"/>
				<stop  offset="1" style="stop-color:#FF928E"/>
			</linearGradient>
			<path style="fill:url(#SVGID_00000134948337230889408760000016649062665623887278_);" d="M1199.5,754.6c0,0,35.1,66,30.6,92.7
				c-4.5,26.7-48,24.8-85.9,3.1l-26.5-71.3L1199.5,754.6z"/>
			<path class="st7" d="M1145.8,815.4c1.5-0.7,2.1-2.6,1.2-4c-2.8-4.3-8.1-13.1-9.8-20.7c0,0-6.3-4,16.1-9.4
				c22.4-5.4,55.7-13.7,62.7-32.7c6.8-18.6-11.1-65.2-39.8-28c-1.1,1.4-3.2,1.4-4.3,0c-4.7-6.1-17-18.8-34.2-11.1
				c-16,7.2-17.8,18.9-17.6,24.9c0.1,1.7-1.5,3.1-3.2,2.8c-8.1-1.5-27.6-2.9-36.6,17.1c-7.5,16.4-2.6,25.7,1.8,30.3
				c1.4,1.5,0.8,3.9-1.2,4.5c-5.3,1.6-12.2,6.2-11.5,18.6c1,17.3,20.2,15.7,25.7,15c0.9-0.1,1.8,0.2,2.4,0.9
				c4.7,5.2,25.9,27.4,48.9,30c2,0.2,3.5-1.7,2.9-3.6l-9.9-28.9c-0.5-1.3,0.2-2.8,1.5-3.4L1145.8,815.4z"/>
			
				<linearGradient id="SVGID_00000013194408765595353770000016717022630268055452_" gradientUnits="userSpaceOnUse" x1="162.5137" y1="2886.6658" x2="129.8484" y2="2778.9277" gradientTransform="matrix(0.746 -0.6659 0.6659 0.746 -853.4413 -1190.1472)">
				<stop  offset="0" style="stop-color:#FEBBBA"/>
				<stop  offset="1" style="stop-color:#FF928E"/>
			</linearGradient>
			<path style="fill:url(#SVGID_00000013194408765595353770000016717022630268055452_);" d="M1149.8,819.5c0,0-25-17.1-26.8-2.7
				c-1.8,14.4,22.5,20.9,34.5,15.5L1149.8,819.5z"/>
		</g>
	</g>
</g>
</svg>
